<svg width="200" height="400" viewBox="0 0 200 400" fill="none" xmlns="http://www.w3.org/2000/svg">
<mask id="path-1-inside-1" fill="white">
<path d="M0 400C53.0433 400 103.914 378.929 141.421 341.421C178.929 303.914 200 253.043 200 200C200 146.957 178.929 96.0859 141.421 58.5787C103.914 21.0714 53.0433 8.00932e-06 3.05176e-05 0V1.11183C52.7484 1.11184 103.336 22.0661 140.635 59.3648C177.934 96.6636 198.888 147.252 198.888 200C198.888 252.748 177.934 303.336 140.635 340.635C103.336 377.934 52.7484 398.888 0 398.888V400Z"/>
</mask>
<path d="M0 400C53.0433 400 103.914 378.929 141.421 341.421C178.929 303.914 200 253.043 200 200C200 146.957 178.929 96.0859 141.421 58.5787C103.914 21.0714 53.0433 8.00932e-06 3.05176e-05 0V1.11183C52.7484 1.11184 103.336 22.0661 140.635 59.3648C177.934 96.6636 198.888 147.252 198.888 200C198.888 252.748 177.934 303.336 140.635 340.635C103.336 377.934 52.7484 398.888 0 398.888V400Z" stroke="#F4E858" stroke-width="16" stroke-linejoin="round" stroke-dasharray="20 20" mask="url(#path-1-inside-1)"/>
</svg>
