<svg width="1437" height="620" viewBox="0 0 1437 620" fill="none" xmlns="http://www.w3.org/2000/svg">
<circle cx="399.711" cy="250" r="250" fill="#F0E021"/>
<path d="M1091.55 220.728C1009.18 247.689 903.476 292.58 787.573 312.577L1436.56 312.767V215.249C1436.56 197.081 1279.25 159.3 1091.55 220.728Z" fill="url(#paint0_linear)"/>
<path d="M1399.87 228.567C1398.28 235.529 1393.41 240.354 1388.97 239.344C1384.55 238.337 1382.25 231.875 1383.84 224.913C1385.43 217.951 1390.29 213.126 1394.74 214.136C1399.16 215.143 1401.46 221.605 1399.87 228.567Z" fill="#01A453"/>
<path d="M1412.09 228.567C1413.68 235.529 1418.54 240.354 1422.98 239.344C1427.41 238.337 1429.71 231.875 1428.12 224.913C1426.53 217.951 1421.66 213.126 1417.22 214.136C1412.8 215.143 1410.5 221.605 1412.09 228.567Z" fill="#01A453"/>
<path d="M110.556 176.944C110.556 185.141 103.91 191.787 95.7128 191.787C87.5155 191.787 80.8696 185.141 80.8696 176.944C80.8696 168.746 87.5155 162.101 95.7128 162.101C103.91 162.101 110.556 168.746 110.556 176.944Z" fill="#01A453"/>
<path d="M91.3229 177.422C102.335 181.891 115.074 164.684 137.609 168.325C161.31 172.156 163.384 188.516 168.492 188.196C173.6 187.876 179.744 184.725 189.479 188.594C200.622 193.024 203.365 203.278 194.108 203.119C184.852 202.958 88.6108 186.2 88.6108 186.2L91.3229 177.422Z" fill="#01A453"/>
<path d="M49.2677 172.156C49.2677 172.156 59.1216 166.211 71.5324 168.446C88.8289 171.558 94.498 181.192 106.007 183.327C117.178 185.403 74.2463 191.787 65.9456 190.191C57.6469 188.594 40.4097 180.774 40.4097 180.774L49.2677 172.156Z" fill="#01A453"/>
<path d="M55.0939 177.742C55.0939 177.742 42.0798 161.821 29.1788 158.01C11.6811 152.844 0.126465 162.738 0.126465 176.785L55.0939 177.742Z" fill="#01A453"/>
<path d="M410.851 295.051C486.765 296.999 563.114 282.201 573.937 269.5C570.927 266.426 562.572 263.704 547.63 261.693C509.612 256.575 454.342 228.176 422.98 225.231C350.743 218.443 309.157 238.888 237.062 217.066L246.299 260.735C246.299 260.735 327.704 292.917 410.851 295.051Z" fill="url(#paint1_linear)"/>
<path d="M1006.48 330.446C1019.77 327.637 1026.26 325.812 1026.26 325.812C602.534 181.732 323.866 299.519 323.866 299.519C323.866 299.519 320.174 296.872 328.974 302.233C392.444 289.506 666.44 216.511 1006.48 330.446Z" fill="#F9F899"/>
<path d="M1006.48 330.446C666.44 216.511 442.931 271.589 345.629 305.048C384.631 328.801 479.445 363.789 676.315 360.46C858.717 357.377 965.319 339.157 1006.48 330.446Z" fill="url(#paint2_linear)"/>
<path d="M444.516 308.942L527.839 319.15C490.872 318.758 256.832 175.442 0.125977 175.442V202.926C196.502 202.926 313.626 254.877 444.516 308.942Z" fill="#F9F899"/>
<path d="M0.125977 194.66V308.942H504.473C459.137 308.942 271.196 194.66 0.125977 194.66Z" fill="url(#paint3_linear)"/>
<path d="M143.517 308.775H135.808V271.528H143.517V308.775Z" fill="#785B46"/>
<path d="M160.481 235.473C160.481 258.504 151.291 277.174 139.957 277.174C128.62 277.174 119.431 258.504 119.431 235.473C119.431 212.441 128.62 193.771 139.957 193.771C151.291 193.771 160.481 212.441 160.481 235.473Z" fill="#01A453"/>
<path d="M146.198 241.401C142.682 259.376 132.661 272.543 123.815 270.813C114.968 269.08 110.648 253.109 114.164 235.134C117.68 217.16 127.703 203.992 136.549 205.722C145.396 207.455 149.717 223.428 146.198 241.401Z" fill="#01A453"/>
<path d="M133.712 241.401C137.229 259.376 147.249 272.543 156.096 270.813C164.942 269.08 169.263 253.109 165.747 235.134C162.23 217.16 152.208 203.992 143.361 205.722C134.515 207.455 130.194 223.428 133.712 241.401Z" fill="#01A453"/>
<path d="M1347.91 308.775H1341.17V276.228H1347.91V308.775Z" fill="#785B46"/>
<path d="M1362.73 244.724C1362.73 264.847 1354.71 281.161 1344.81 281.161C1334.88 281.161 1326.86 264.847 1326.86 244.724C1326.86 224.599 1334.88 208.284 1344.81 208.284C1354.71 208.284 1362.73 224.599 1362.73 244.724Z" fill="#01A453"/>
<path d="M1350.26 249.905C1347.18 265.61 1338.43 277.116 1330.69 275.603C1322.97 274.092 1319.18 260.134 1322.26 244.427C1325.33 228.722 1334.1 217.215 1341.82 218.728C1349.55 220.241 1353.33 234.2 1350.26 249.905Z" fill="#01A453"/>
<path d="M1339.35 249.905C1342.41 265.61 1351.16 277.116 1358.9 275.603C1366.64 274.092 1370.41 260.134 1367.33 244.427C1364.26 228.722 1355.51 217.215 1347.77 218.728C1340.04 220.241 1336.26 234.2 1339.35 249.905Z" fill="#01A453"/>
<path d="M1410.15 308.775H1403.41V276.228H1410.15V308.775Z" fill="#785B46"/>
<path d="M1424.98 244.724C1424.98 264.847 1420.34 279.29 1407.05 279.29C1393.53 279.29 1389.1 264.847 1389.1 244.724C1389.1 224.599 1400.23 197.212 1407.05 197.212C1412.68 197.212 1424.98 224.599 1424.98 244.724Z" fill="#01A453"/>
<path d="M1412.11 251.429C1407.34 266.701 1397.36 277.172 1389.85 274.818C1382.32 272.464 1380.1 258.175 1384.89 242.902C1389.68 227.632 1399.66 217.16 1407.16 219.515C1414.67 221.869 1416.89 236.157 1412.11 251.429Z" fill="#01A453"/>
<path d="M1401.78 250.732C1405.77 266.226 1415.21 277.193 1422.83 275.222C1430.45 273.253 1433.38 259.096 1429.4 243.602C1425.4 228.105 1415.96 217.141 1408.33 219.111C1400.71 221.08 1397.78 235.238 1401.78 250.732Z" fill="#01A453"/>
<path d="M1310.5 308.936C1308.22 307.322 1310.18 300.624 1316.44 299.452C1327.95 297.292 1333.2 302.235 1335.46 308.936H1310.5Z" fill="#01A453"/>
<path d="M1369.59 308.936C1369.59 308.936 1374.72 298.521 1384.34 297.954C1398.32 297.125 1399.39 308.936 1393.53 308.936H1369.59Z" fill="#01A453"/>
<path d="M1338.47 308.936C1338.47 308.936 1346.24 296.068 1358.96 291.689C1373.42 286.712 1385.96 297.027 1389.55 308.936H1338.47Z" fill="#01A453"/>
<path d="M1320.12 308.915C1320.12 308.915 1326.17 297.991 1337.03 295.811C1351.97 292.81 1359.3 299.869 1362.25 308.915H1320.12Z" fill="#01A453"/>
<path d="M1388.68 308.936C1388.68 308.936 1395.79 295.52 1407.89 291.689C1420.97 287.549 1436.56 285.953 1436.56 308.936H1388.68Z" fill="#01A453"/>
<path d="M0.606838 308.869C0.606838 308.869 0.336789 270.679 0.606838 270.949C0.876887 271.221 39.0859 257.905 49.028 282.761C56.6889 301.913 36.2591 308.616 36.2591 308.616L0.606838 308.869Z" fill="#01A453"/>
<path d="M35.3822 299.758C36.1004 299.758 54.774 286.352 77.0387 293.534C99.3034 300.716 101.937 308.856 101.937 308.856L33.5474 308.697L35.3822 299.758Z" fill="#01A453"/>
<path d="M227.354 308.856C227.354 308.856 229.54 292.816 244.383 292.576C259.226 292.337 271.196 305.265 264.014 308.856C264.014 308.856 226.636 308.856 227.354 308.856Z" fill="#01A453"/>
<path d="M233.505 308.775H226.769V276.228H233.505V308.775Z" fill="#785B46"/>
<path d="M248.329 244.724C248.329 264.847 240.298 281.161 230.392 281.161C220.487 281.161 212.458 264.847 212.458 244.724C212.458 224.599 220.487 208.284 230.392 208.284C240.298 208.284 248.329 224.599 248.329 244.724Z" fill="#01A453"/>
<path d="M235.849 249.905C232.775 265.61 224.018 277.116 216.289 275.603C208.559 274.092 204.784 260.134 207.858 244.427C210.93 228.722 219.686 217.215 227.418 218.728C235.148 220.241 238.921 234.2 235.849 249.905Z" fill="#01A453"/>
<path d="M224.938 249.905C228.01 265.61 236.766 277.116 244.498 275.603C252.228 274.092 256.003 260.134 252.931 244.427C249.857 228.722 241.099 217.215 233.369 218.728C225.639 220.241 221.864 234.2 224.938 249.905Z" fill="#01A453"/>
<path d="M233.908 308.886C233.908 308.886 230.019 298.242 217.889 298.242C205.758 298.242 201.141 308.886 201.141 308.886C201.141 308.886 233.908 308.727 233.908 308.886Z" fill="#01A453"/>
<path d="M422.98 225.231C454.342 228.176 509.612 256.575 547.629 261.693C562.572 263.704 570.926 266.426 573.937 269.499C578.507 264.135 571.394 259.146 547.629 255.947C509.612 250.83 454.342 222.431 422.98 219.485C350.308 212.655 308.67 233.407 235.765 210.939L237.061 217.066C309.157 238.888 350.742 218.443 422.98 225.231Z" fill="#F9F899"/>
<path d="M261.142 308.775C261.142 308.775 266.25 301.275 277.102 301.275C287.955 301.275 294.18 308.775 294.18 308.775H261.142Z" fill="#01A453"/>
<path d="M855.98 240.33L828.749 212.534L804.533 240.33V308.775H855.98V240.33Z" fill="#DFEACE"/>
<path d="M1051.91 240.33H855.918V308.775H1051.91V240.33Z" fill="#B7C2A5"/>
<path d="M804.592 245.094H794.696L821.829 205.193H1033.9L1063.15 245.094H851.276L827.416 213.653L804.592 245.094Z" fill="#785B46"/>
<path d="M827.416 213.653L824.382 209.662L799.325 245.254H804.592L827.416 213.653Z" fill="#543D30"/>
<path d="M849.341 308.793H810.182V260.871H849.341V308.793Z" fill="#B7C2A5"/>
<path d="M1070.33 296.326H873.54V293.453H1070.33V296.326Z" fill="#785B46"/>
<path d="M882.395 308.775H879.127V293.52L880.815 289.893L882.395 293.52V308.775Z" fill="#785B46"/>
<path d="M893.721 308.775H890.454V293.52L892.141 289.893L893.721 293.52V308.775Z" fill="#785B46"/>
<path d="M905.046 308.775H901.791V293.52L903.476 289.893L905.046 293.52V308.775Z" fill="#785B46"/>
<path d="M916.385 308.775H913.109V293.52L914.795 289.893L916.385 293.52V308.775Z" fill="#785B46"/>
<path d="M927.703 308.775H924.428V293.52L926.114 289.893L927.703 293.52V308.775Z" fill="#785B46"/>
<path d="M939.023 308.775H935.767V293.52L937.452 289.893L939.023 293.52V308.775Z" fill="#785B46"/>
<path d="M950.361 308.775H947.086V293.52L948.771 289.893L950.361 293.52V308.775Z" fill="#785B46"/>
<path d="M961.68 308.775H958.424V293.52L960.11 289.893L961.68 293.52V308.775Z" fill="#785B46"/>
<path d="M973.018 308.775H969.743V293.52L971.429 289.893L973.018 293.52V308.775Z" fill="#785B46"/>
<path d="M984.337 308.775H981.062V293.52L982.748 289.893L984.337 293.52V308.775Z" fill="#785B46"/>
<path d="M995.656 308.775H992.4V293.52L994.086 289.893L995.656 293.52V308.775Z" fill="#785B46"/>
<path d="M1006.99 308.775H1003.72V293.52L1005.41 289.893L1006.99 293.52V308.775Z" fill="#785B46"/>
<path d="M1018.31 308.775H1015.06V293.52L1016.74 289.893L1018.31 293.52V308.775Z" fill="#785B46"/>
<path d="M1029.65 308.775H1026.38V293.52L1028.06 289.893L1029.65 293.52V308.775Z" fill="#785B46"/>
<path d="M1040.97 308.775H1037.7V293.52L1039.38 289.893L1040.97 293.52V308.775Z" fill="#785B46"/>
<path d="M1052.29 308.775H1049.03V293.52L1050.72 289.893L1052.29 293.52V308.775Z" fill="#785B46"/>
<path d="M1063.63 308.775H1060.35V293.52L1062.04 289.893L1063.63 293.52V308.775Z" fill="#785B46"/>
<path d="M845.779 208.014L872.343 245.094H875.695L849.142 208.014H845.779Z" fill="#543D30"/>
<path d="M880.136 208.014L906.923 245.094H910.274L883.609 208.014H880.136Z" fill="#543D30"/>
<path d="M914.488 208.014L941.493 245.094H944.845L918.07 208.014H914.488Z" fill="#543D30"/>
<path d="M948.848 208.014L976.082 245.094H979.434L952.544 208.014H948.848Z" fill="#543D30"/>
<path d="M983.207 208.014L1010.65 245.094H1014L986.999 208.014H983.207Z" fill="#543D30"/>
<path d="M1017.57 208.014L1045.24 245.094H1048.59L1021.47 208.014H1017.57Z" fill="#543D30"/>
<path d="M1049.44 249.437H855.903V245.094H1049.44V249.437Z" fill="#939C88"/>
<path d="M821.829 205.193H1033.9L1036.01 208.066H823.744L821.829 205.193Z" fill="#9B7B63"/>
<path d="M849.121 242.221H1061L1063.15 245.094H851.276L849.121 242.221Z" fill="#9B7B63"/>
<path d="M849.24 262.691H810.182V260.871H849.24V262.691Z" fill="#939C88"/>
<path d="M849.24 269.273H810.182V267.456H849.24V269.273Z" fill="#939C88"/>
<path d="M849.24 275.858H810.182V274.039H849.24V275.858Z" fill="#939C88"/>
<path d="M849.24 282.441H810.182V280.623H849.24V282.441Z" fill="#939C88"/>
<path d="M849.24 289.025H810.182V287.206H849.24V289.025Z" fill="#939C88"/>
<path d="M849.24 295.608H810.182V293.79H849.24V295.608Z" fill="#939C88"/>
<path d="M849.24 302.193H810.182V300.373H849.24V302.193Z" fill="#939C88"/>
<path d="M849.24 308.775H810.182V306.958H849.24V308.775Z" fill="#939C88"/>
<path d="M1184.88 250.899L1161.84 227.397L1141.37 250.899V308.775H1184.88V250.899Z" fill="#DFEACE"/>
<path d="M1283.77 250.899H1184.83V308.775H1283.77V250.899Z" fill="#B7C2A5"/>
<path d="M1165.46 259.136H1156.71V245.09H1165.46V259.136Z" fill="white"/>
<path d="M1163.95 257.585H1158.22V246.641H1163.95V257.585Z" fill="#939C88"/>
<path d="M1211.91 308.737H1196.64V284.233H1211.91V308.737Z" fill="white"/>
<path d="M1211.93 275.316H1196.66V260.456H1211.93V275.316Z" fill="white"/>
<path d="M1209.67 272.987H1205.6V269.04H1209.67V272.987Z" fill="#939C88"/>
<path d="M1202.96 272.987H1198.9V269.04H1202.96V272.987Z" fill="#939C88"/>
<path d="M1209.67 266.734H1205.6V262.785H1209.67V266.734Z" fill="#939C88"/>
<path d="M1202.96 266.734H1198.9V262.785H1202.96V266.734Z" fill="#939C88"/>
<path d="M1273.6 275.316H1258.33V260.456H1273.6V275.316Z" fill="white"/>
<path d="M1271.34 272.987H1267.28V269.04H1271.34V272.987Z" fill="#939C88"/>
<path d="M1264.63 272.987H1260.57V269.04H1264.63V272.987Z" fill="#939C88"/>
<path d="M1271.34 266.734H1267.28V262.785H1271.34V266.734Z" fill="#939C88"/>
<path d="M1264.63 266.734H1260.57V262.785H1264.63V266.734Z" fill="#939C88"/>
<path d="M1243.26 275.316H1227.99V260.456H1243.26V275.316Z" fill="white"/>
<path d="M1241.02 272.987H1236.96V269.04H1241.02V272.987Z" fill="#939C88"/>
<path d="M1234.31 272.987H1230.25V269.04H1234.31V272.987Z" fill="#939C88"/>
<path d="M1241.02 266.734H1236.96V262.785H1241.02V266.734Z" fill="#939C88"/>
<path d="M1234.31 266.734H1230.25V262.785H1234.31V266.734Z" fill="#939C88"/>
<path d="M1273.6 299.071H1258.33V284.209H1273.6V299.071Z" fill="white"/>
<path d="M1271.34 296.742H1267.28V292.793H1271.34V296.742Z" fill="#939C88"/>
<path d="M1264.63 296.742H1260.57V292.793H1264.63V296.742Z" fill="#939C88"/>
<path d="M1271.34 290.487H1267.28V286.539H1271.34V290.487Z" fill="#939C88"/>
<path d="M1264.63 290.487H1260.57V286.539H1264.63V290.487Z" fill="#939C88"/>
<path d="M1243.26 299.071H1227.99V284.209H1243.26V299.071Z" fill="white"/>
<path d="M1241.02 296.742H1236.96V292.793H1241.02V296.742Z" fill="#939C88"/>
<path d="M1234.31 296.742H1230.25V292.793H1234.31V296.742Z" fill="#939C88"/>
<path d="M1241.02 290.487H1236.96V286.539H1241.02V290.487Z" fill="#939C88"/>
<path d="M1234.31 290.487H1230.25V286.539H1234.31V290.487Z" fill="#939C88"/>
<path d="M1285.36 308.775H1282.33V254.909H1285.36V308.775Z" fill="#DFEACE"/>
<path d="M1186.4 308.775H1183.39V254.909H1186.4V308.775Z" fill="#939C88"/>
<path d="M1141.43 254.928H1133.06L1156 221.189H1268.48L1294.36 254.928H1180.9L1160.73 228.341L1141.43 254.928Z" fill="#785B46"/>
<path d="M1160.73 228.341L1158.16 224.966L1136.96 255.062H1141.43L1160.73 228.341Z" fill="#543D30"/>
<path d="M1179.39 252.927L1292.79 252.875L1294.32 254.928H1180.9L1179.39 252.927Z" fill="#9B7B63"/>
<path d="M1176.17 224.032L1199.74 254.928L1201.6 254.909L1178.01 224.03C1177.39 224.03 1176.78 224.032 1176.17 224.032Z" fill="#543D30"/>
<path d="M1251.74 223.821L1275.47 254.928L1277.33 254.909L1253.56 223.813C1252.97 223.815 1252.36 223.817 1251.74 223.821Z" fill="#543D30"/>
<path d="M1201.75 223.982L1225.37 254.928L1227.23 254.909L1203.57 223.976C1202.96 223.978 1202.37 223.98 1201.75 223.982Z" fill="#543D30"/>
<path d="M1227.86 223.897L1251.53 254.928L1253.39 254.909L1229.7 223.892C1229.09 223.894 1228.47 223.896 1227.86 223.897Z" fill="#543D30"/>
<path d="M1282.35 257.659H1184.83V254.923H1282.35V257.659Z" fill="#939C88"/>
<path d="M1156 221.189L1157.63 223.547H1270.32L1268.48 221.189C1268.48 221.189 1155.71 221.465 1156 221.189Z" fill="#9B7B63"/>
<path d="M1185.4 225.623L1191.34 233.232V211.445H1185.38L1185.4 225.623Z" fill="#DFEACE"/>
<path d="M1199.42 233.232H1191.34V211.445H1199.42V233.232Z" fill="#B7C2A5"/>
<path d="M1201.05 211.473H1183.66V207.85H1201.05V211.473Z" fill="#DFEACE"/>
<path d="M1201.05 211.473H1189.92V207.838H1201.05V211.473Z" fill="#B7C2A5"/>
<path d="M1436.56 619.843H0.126465V308.936H1436.56V619.843Z" fill="#7EA349"/>
<path d="M137.392 323.582C97.2313 330.559 49.3119 341.765 0.105469 359.692V365.794C49.5838 347.599 97.8633 336.288 138.242 329.267C231.97 312.968 304.577 315.607 305.297 315.638L305.525 309.896C304.796 309.865 231.699 307.199 137.392 323.582Z" fill="#CFE365"/>
<path d="M212.412 324.846C122.608 341.02 53.0428 367.052 0.105469 394.684V401.124C73.9476 362.178 152.553 341.472 213.297 330.523C307.23 313.592 379.904 315.619 380.63 315.638L380.808 309.896C380.08 309.869 306.902 307.827 212.412 324.846Z" fill="#CFE365"/>
<path d="M287.43 326.11C146.846 352.326 55.5785 401.984 0.105469 443.99V451.216C91.8877 380.164 206.377 347.082 288.351 331.783C382.476 314.218 455.236 315.611 455.96 315.64L456.09 309.894C455.359 309.882 382.114 308.454 287.43 326.11Z" fill="#CFE365"/>
<path d="M58.3694 466.647L54.6577 462.259C150.276 381.39 274.815 344.272 362.449 327.374C457.322 309.08 530.639 309.89 531.377 309.894L531.294 315.64C530.594 315.617 457.722 314.841 363.408 333.041C276.487 349.815 153.003 386.609 58.3694 466.647Z" fill="#CFE365"/>
<path d="M132.391 469.332L128.695 464.937C224.811 383.968 349.658 346.124 437.468 328.638C532.535 309.704 605.862 309.907 606.657 309.894L606.626 315.64C605.887 315.655 532.983 315.461 438.464 334.298C351.353 351.66 227.542 389.177 132.391 469.332Z" fill="#CFE365"/>
<path d="M206.422 472.017L202.731 467.616C299.343 386.544 424.505 347.978 512.487 329.902C607.743 310.332 681.21 309.896 681.942 309.894L681.959 315.64C681.231 315.641 608.236 316.084 513.515 335.556C426.222 353.504 302.084 391.744 206.422 472.017Z" fill="#CFE365"/>
<path d="M280.45 474.702L276.765 470.291C373.879 389.116 499.352 349.83 587.509 331.166C682.955 310.963 756.495 309.903 757.226 309.894L757.291 315.64C756.566 315.647 683.489 316.708 588.574 336.816C501.091 355.346 376.624 394.312 280.45 474.702Z" fill="#CFE365"/>
<path d="M354.476 477.387L350.798 472.969C448.412 391.692 574.196 351.683 662.527 332.432C758.165 311.589 831.775 309.909 832.509 309.894L832.624 315.64C831.894 315.653 758.741 317.331 663.624 338.073C575.96 357.189 451.163 396.878 354.476 477.387Z" fill="#CFE365"/>
<path d="M428.501 480.071L424.837 475.649C522.946 394.266 649.041 353.535 737.547 333.696C833.374 312.215 907.057 309.917 907.785 309.896L907.957 315.638C907.229 315.659 833.995 317.953 738.681 339.329C650.828 359.033 525.702 399.447 428.501 480.071Z" fill="#CFE365"/>
<path d="M502.529 482.756L498.873 478.326C597.481 396.84 723.887 355.389 812.568 334.961C908.589 312.843 982.345 309.923 983.073 309.896L983.283 315.638C982.556 315.664 909.24 318.574 813.733 340.588C725.697 360.878 600.243 402.015 502.529 482.756Z" fill="#CFE365"/>
<path d="M576.555 485.441L572.907 481.005C672.015 399.418 798.733 357.241 887.587 336.225C983.801 313.47 1057.63 309.93 1058.36 309.898L1058.61 315.636C1057.88 315.67 984.491 319.196 888.788 341.846C800.564 362.722 674.781 404.581 576.555 485.441Z" fill="#CFE365"/>
<path d="M650.585 488.126L646.94 483.681C746.548 401.992 873.581 359.093 962.599 337.491C1059.01 314.098 1132.9 309.936 1133.65 309.898L1133.96 315.636C1133.21 315.676 1059.74 319.821 963.844 343.104C875.433 364.566 749.321 407.148 650.585 488.126Z" fill="#CFE365"/>
<path d="M724.611 490.811L720.978 486.361C821.082 404.568 948.426 360.945 1037.62 338.755C1134.22 314.726 1208.19 309.944 1208.92 309.9L1209.28 315.634C1208.55 315.68 1135.01 320.441 1038.9 344.361C950.303 366.411 823.861 409.716 724.611 490.811Z" fill="#CFE365"/>
<path d="M798.64 493.493L795.012 489.038C895.618 407.14 1023.27 362.797 1112.64 340.019C1209.44 315.354 1283.48 309.951 1284.21 309.902L1284.61 315.632C1283.88 315.684 1210.26 321.062 1113.94 345.617C1025.17 368.253 898.399 412.283 798.64 493.493Z" fill="#CFE365"/>
<path d="M872.665 496.18L869.047 491.717C970.145 409.716 1098.12 364.651 1187.66 341.285C1284.65 315.982 1358.75 309.961 1359.49 309.903L1359.94 315.63C1359.21 315.687 1285.51 321.682 1189 346.875C1100.04 370.098 972.942 414.853 872.665 496.18Z" fill="#CFE365"/>
<path d="M946.702 498.865L943.083 494.395C1044.69 412.292 1172.97 366.505 1262.7 342.551C1359.86 316.611 1434.04 309.969 1434.78 309.905L1435.28 315.628C1434.53 315.691 1360.76 322.305 1264.06 348.132C1174.9 371.94 1047.48 417.421 946.702 498.865Z" fill="#CFE365"/>
<path d="M1436.56 325.281C1318.34 336.776 1214.36 381.007 1146.86 416.925C1070.54 457.53 1023.01 496.58 1022.53 496.969L1026.19 501.397C1026.65 501.012 1073.74 462.334 1149.55 421.997C1216.48 386.383 1319.5 342.545 1436.56 331.055V325.281Z" fill="#CFE365"/>
<path d="M1436.56 344.094C1339.1 359.112 1260.53 392.15 1207.77 420.277C1135.51 458.792 1094.6 496.704 1094.2 497.084L1098.12 501.282C1098.5 500.908 1138.88 463.512 1210.47 425.348C1262.66 397.528 1340.28 364.863 1436.56 349.907V344.094Z" fill="#CFE365"/>
<path d="M1436.56 366.236C1354.25 382.93 1287.33 411.666 1240.63 436.557C1168.37 475.072 1127.46 512.984 1127.06 513.363L1130.99 517.562C1131.39 517.188 1171.74 479.791 1243.33 441.628C1289.43 417.048 1355.41 388.691 1436.56 372.097V366.236Z" fill="#CFE365"/>
<path d="M1436.56 389.193C1370.64 406.152 1316.36 430.088 1276.7 451.241C1204.44 489.756 1163.53 527.668 1163.12 528.048L1167.03 532.246C1167.43 531.872 1207.79 494.475 1279.4 456.312C1318.47 435.48 1371.81 411.928 1436.56 395.128V389.193Z" fill="#CFE365"/>
<path d="M1436.56 414.313C1386.04 430.018 1343.68 449.222 1311.15 466.563C1238.89 505.078 1197.98 542.99 1197.58 543.37L1201.51 547.568C1201.91 547.194 1242.26 509.797 1313.85 471.634C1345.76 454.624 1387.19 435.812 1436.56 420.331V414.313Z" fill="#CFE365"/>
<path d="M26.4534 326.579C18.1815 328.661 9.28714 331.08 0.105469 333.852V340.017C54.9695 323.205 115.137 314.362 147.139 314.362V308.616C122.579 308.616 75.7384 314.171 26.4534 326.579Z" fill="#CFE365"/>
<path d="M1436.56 308.869H0.126465V315.785H1436.56V308.869Z" fill="#F9F899"/>
<path d="M987.363 478.502C775.443 454.883 485.704 383.631 267.242 383.631C117.977 383.631 0.126465 443.2 0.126465 443.2V452.137C0.126465 452.137 117.977 392.567 267.242 392.567C485.704 392.567 775.443 463.822 987.363 487.441C1247.97 516.483 1436.56 452.589 1436.56 452.589V443.652C1436.56 443.652 1247.97 507.545 987.363 478.502Z" fill="#F9F899"/>
<path d="M1087.07 494.447C1060.2 509.234 1027.87 514.823 998.049 520.166C965.26 526.04 932.242 530.532 899.472 536.503C839.186 547.489 779.285 559.743 718.61 568.543C688.06 572.972 657.481 577.386 626.716 580.056C601.891 582.209 563.475 563.876 539.33 570.684C518.664 576.513 516.261 603.564 507.15 619.843H1436.56V452.589C1436.56 452.589 1294.7 500.629 1087.07 494.447Z" fill="url(#paint4_linear)"/>
<path d="M545.02 571.415C569.472 563.974 596.153 568.046 621.31 566.245C653.714 563.926 685.93 565.044 718.085 560.471C750.369 555.882 782.985 544.584 815.058 538.702C846.008 533.024 876.66 525.839 907.612 520.224C938.103 514.694 968.823 510.607 999.294 504.956C1017.13 501.644 1034.71 497.139 1052.35 492.922C1031.26 491.702 1009.58 489.915 987.363 487.441C775.443 463.822 485.703 392.567 267.241 392.567C117.977 392.567 0.125977 452.137 0.125977 452.137V619.843H491.217C502.023 597.31 519.867 579.066 545.02 571.415Z" fill="url(#paint5_linear)"/>
<path d="M1037.77 496.789C1047.12 493.878 1054.95 495.575 1064.53 493.568C1039.63 492.373 1013.89 490.394 987.363 487.441C775.443 463.822 485.703 392.567 267.241 392.567C117.977 392.567 0.125977 452.137 0.125977 452.137V548.979C17.9052 483.861 100.261 441.247 202.726 427.84C409.429 400.795 680.646 460.727 868.752 487.692C940.746 498.013 999.467 508.717 1037.77 496.789Z" fill="url(#paint6_linear)"/>
<path d="M1102.74 308.915C1102.74 308.915 1108.79 297.991 1119.65 295.811C1134.59 292.81 1141.92 299.87 1144.87 308.915H1102.74Z" fill="#01A453"/>
<path d="M820.872 546.426L579.551 580.9C579.551 580.9 174.37 576.622 252.682 540.041C446.762 449.387 622.964 450.664 820.872 546.426Z" fill="url(#paint7_linear)"/>
<path d="M1091.42 494.577C1082.23 497.9 1071.42 498.647 1061.87 500.186C1052 501.782 1033.71 497.406 1023.89 499.183C929.562 516.25 797.806 549.322 694.466 563.344C617.728 573.757 556.503 570.314 553.695 570.765C686.805 610.985 900.201 518.336 1110.07 518.336C1408.85 518.336 1436.56 480.031 1436.56 480.031V452.589C1436.56 452.589 1296.69 499.969 1091.42 494.577Z" fill="url(#paint8_linear)"/>
<path d="M1227.3 485.081C1193.29 481.651 1158.6 483.926 1124.57 486.159C1094.37 488.138 1064.26 491.034 1034.25 494.853C983.762 501.274 933.679 510.155 883.957 520.936C804.222 538.221 724.956 560.892 643.152 565.977C621.222 567.341 599.228 567.496 577.292 566.165C553.212 564.705 529.677 560.494 505.814 557.353C503.356 557.029 502.956 560.967 505.239 561.597C544.023 572.282 586.671 574.414 626.717 573.462C665.102 572.55 703.264 567.254 740.971 560.255C831.033 543.534 919.812 520.883 1010.59 507.905C1044.21 503.098 1077.99 499.434 1111.85 496.686C1150.25 493.568 1189.06 493.461 1227.3 488.783C1229.66 488.496 1229.7 485.325 1227.3 485.081Z" fill="#F9F899"/>
<path d="M660.628 619.843C660.628 619.843 645.946 602.286 575.72 580.778C409.214 529.777 365.043 514.505 216.931 517.058C82.671 519.373 25.1544 543.358 0.125977 562.545V619.843H660.628Z" fill="url(#paint9_linear)"/>
<path d="M0.125977 558.422C0.125977 558.422 232.891 439.173 628.709 606.437C628.709 606.437 433.976 527.324 224.592 529.827C64.3498 531.742 0.125977 584.091 0.125977 584.091C0.125977 584.091 0.125977 559.094 0.125977 558.422Z" fill="url(#paint10_linear)"/>
<path d="M688.043 619.912C666.776 611.181 645.188 603.2 623.624 595.219C591.048 583.164 558.533 570.865 525.771 559.326C488.529 546.214 450.783 536.283 411.93 529.559C327.597 514.961 241.288 508.045 155.931 517.04C102.804 522.641 48.808 533.577 0 555.991V561.151C92.7686 525.619 191.959 517.067 290.891 523.43C361.203 527.952 431.696 538.999 498.767 560.984C552.929 578.733 606.27 599.306 659.497 619.912H688.043Z" fill="#F9F899"/>
<path d="M1142.65 126.266C1142.65 126.661 1141.12 126.979 1139.24 126.979C1137.35 126.979 1135.83 126.661 1135.83 126.266C1135.83 125.872 1137.35 125.552 1139.24 125.552C1141.12 125.552 1142.65 125.872 1142.65 126.266Z" fill="#1F1F1F"/>
<path d="M1147.9 117.786C1142.48 117.027 1140.22 121.329 1139.32 124.154C1138.44 121.329 1136.16 117.027 1130.76 117.786C1127.33 118.266 1125.49 123.367 1126.54 123.663L1126.56 123.69C1127.6 119.438 1130.74 119.082 1130.85 119.071C1137.12 118.669 1138.53 124.799 1138.8 126.349C1138.78 126.427 1138.78 126.471 1138.78 126.477L1138.82 126.487C1138.84 126.594 1138.86 126.676 1138.86 126.703L1139.32 126.598L1139.8 126.703C1139.8 126.676 1139.82 126.594 1139.84 126.487L1139.87 126.477C1139.87 126.471 1139.85 126.427 1139.85 126.349C1140.12 124.799 1141.54 118.669 1147.8 119.071C1147.92 119.082 1151.06 119.438 1152.09 123.69L1152.11 123.663C1153.17 123.367 1151.33 118.266 1147.9 117.786Z" fill="#1F1F1F"/>
<path d="M1201.37 96.8998C1201.37 97.2925 1199.86 97.6123 1197.96 97.6123C1196.09 97.6123 1194.55 97.2925 1194.55 96.8998C1194.55 96.5034 1196.09 96.1855 1197.96 96.1855C1199.86 96.1855 1201.37 96.5034 1201.37 96.8998Z" fill="#1F1F1F"/>
<path d="M1206.62 88.4172C1201.22 87.6607 1198.96 91.9604 1198.06 94.7854C1197.16 91.9604 1194.9 87.6607 1189.5 88.4172C1186.05 88.8998 1184.23 94.0001 1185.28 94.2951L1185.3 94.3238C1186.34 90.072 1189.48 89.7157 1189.57 89.7042C1195.84 89.3001 1197.27 95.4327 1197.54 96.9821C1197.52 97.0607 1197.52 97.1047 1197.52 97.1105L1197.56 97.12C1197.58 97.2273 1197.58 97.3097 1197.6 97.3365L1198.06 97.2311L1198.54 97.3365C1198.54 97.3097 1198.54 97.2273 1198.56 97.12L1198.59 97.1105C1198.59 97.1047 1198.59 97.0607 1198.58 96.9821C1198.84 95.4308 1200.28 89.3001 1206.54 89.7042C1206.64 89.7157 1209.78 90.072 1210.81 94.3238L1210.83 94.2951C1211.89 94.0001 1210.07 88.8998 1206.62 88.4172Z" fill="#1F1F1F"/>
<path d="M1283.1 63.701C1283.1 64.0956 1281.56 64.4154 1279.69 64.4154C1277.81 64.4154 1276.28 64.0956 1276.28 63.701C1276.28 63.3065 1277.81 62.9866 1279.69 62.9866C1281.56 62.9866 1283.1 63.3065 1283.1 63.701Z" fill="#1F1F1F"/>
<path d="M1288.34 55.2203C1282.94 54.4638 1280.68 58.7635 1279.78 61.5885C1278.88 58.7635 1276.62 54.4638 1271.2 55.2203C1267.77 55.701 1265.95 60.8032 1266.99 61.0982L1267.01 61.125C1268.04 56.8751 1271.18 56.5188 1271.3 56.5073C1277.56 56.1032 1278.98 62.2339 1279.25 63.7852C1279.25 63.8619 1279.23 63.9059 1279.23 63.9136L1279.28 63.9212C1279.28 64.0285 1279.3 64.1128 1279.3 64.1396L1279.78 64.0342L1280.24 64.1396C1280.24 64.1128 1280.26 64.0285 1280.28 63.9212L1280.32 63.9136C1280.32 63.9059 1280.32 63.8619 1280.3 63.7852C1280.57 62.2339 1281.98 56.1032 1288.27 56.5073C1288.36 56.5188 1291.5 56.8751 1292.54 61.125L1292.56 61.0982C1293.61 60.8032 1291.77 55.701 1288.34 55.2203Z" fill="#1F1F1F"/>
<path d="M484.555 184.643C484.555 185.037 483.028 185.357 481.145 185.357C479.261 185.357 477.734 185.037 477.734 184.643C477.734 184.248 479.261 183.928 481.145 183.928C483.028 183.928 484.555 184.248 484.555 184.643Z" fill="#1F1F1F"/>
<path d="M489.801 176.162C484.398 175.404 482.132 179.705 481.236 182.53C480.337 179.705 478.073 175.404 472.669 176.162C469.235 176.643 467.404 181.745 468.453 182.04L468.474 182.067C469.509 177.815 472.648 177.461 472.755 177.449C479.02 177.045 480.445 183.178 480.711 184.725C480.699 184.804 480.694 184.85 480.694 184.855L480.734 184.865C480.751 184.97 480.763 185.053 480.766 185.08L481.236 184.974L481.703 185.08C481.707 185.053 481.72 184.97 481.737 184.865L481.778 184.855C481.776 184.85 481.77 184.804 481.758 184.725C482.027 183.176 483.452 177.045 489.716 177.449C489.822 177.461 492.963 177.815 493.995 182.067L494.016 182.04C495.065 181.745 493.236 176.643 489.801 176.162Z" fill="#1F1F1F"/>
<path d="M751.411 141.232C751.411 141.625 749.885 141.944 748.002 141.944C746.119 141.944 744.591 141.625 744.591 141.232C744.591 140.836 746.119 140.516 748.002 140.516C749.885 140.516 751.411 140.836 751.411 141.232Z" fill="#1F1F1F"/>
<path d="M756.658 132.749C751.254 131.993 748.99 136.293 748.091 139.117C747.193 136.293 744.929 131.993 739.524 132.749C736.09 133.232 734.261 138.332 735.309 138.627L735.332 138.654C736.364 134.404 739.505 134.048 739.611 134.036C745.875 133.632 747.3 139.765 747.568 141.314C747.555 141.393 747.549 141.437 747.549 141.443L747.59 141.452C747.607 141.559 747.618 141.642 747.622 141.669L748.091 141.563L748.561 141.669C748.563 141.642 748.576 141.559 748.593 141.452L748.633 141.443C748.633 141.437 748.626 141.391 748.614 141.312C748.882 139.763 750.307 133.632 756.572 134.036C756.677 134.048 759.818 134.404 760.851 138.654L760.874 138.627C761.921 138.332 760.092 133.232 756.658 132.749Z" fill="#1F1F1F"/>
<path d="M585.424 216.564C585.424 216.959 583.896 217.279 582.013 217.279C580.131 217.279 578.604 216.959 578.604 216.564C578.604 216.168 580.131 215.85 582.013 215.85C583.896 215.85 585.424 216.168 585.424 216.564Z" fill="#1F1F1F"/>
<path d="M590.67 208.084C585.265 207.325 583.001 211.625 582.103 214.45C581.207 211.625 578.941 207.325 573.538 208.084C570.102 208.564 568.273 213.666 569.323 213.959L569.344 213.988C570.376 209.736 573.517 209.382 573.622 209.369C579.889 208.966 581.312 215.097 581.58 216.647C581.569 216.725 581.563 216.769 581.561 216.775L581.601 216.784C581.618 216.892 581.632 216.974 581.636 217.001L582.103 216.896L582.572 217.001C582.576 216.974 582.588 216.892 582.605 216.784L582.645 216.775C582.645 216.769 582.639 216.725 582.628 216.647C582.894 215.097 584.319 208.966 590.584 209.369C590.691 209.382 593.83 209.736 594.864 213.988L594.885 213.959C595.933 213.666 594.104 208.564 590.67 208.084Z" fill="#1F1F1F"/>
<path d="M254.725 105.48C254.725 105.875 253.199 106.193 251.314 106.193C249.432 106.193 247.905 105.875 247.905 105.48C247.905 105.086 249.432 104.766 251.314 104.766C253.199 104.766 254.725 105.086 254.725 105.48Z" fill="#1F1F1F"/>
<path d="M259.971 96.9994C254.569 96.241 252.303 100.543 251.406 103.366C250.508 100.543 248.244 96.241 242.84 96.9994C239.406 97.4801 237.575 102.58 238.624 102.877L238.645 102.904C239.679 98.6522 242.819 98.296 242.926 98.2845C249.191 97.8823 250.615 104.013 250.882 105.562C250.87 105.641 250.864 105.685 250.864 105.691L250.905 105.7C250.922 105.808 250.933 105.89 250.937 105.917L251.406 105.811L251.874 105.917C251.878 105.89 251.891 105.808 251.908 105.7L251.948 105.691C251.947 105.685 251.941 105.641 251.929 105.562C252.197 104.013 253.622 97.8823 259.887 98.2845C259.993 98.296 263.133 98.6522 264.166 102.904L264.187 102.877C265.236 102.58 263.407 97.4801 259.971 96.9994Z" fill="#1F1F1F"/>
<path d="M100.228 132.294C100.228 132.688 98.7014 133.006 96.8187 133.006C94.936 133.006 93.4077 132.688 93.4077 132.294C93.4077 131.899 94.936 131.579 96.8187 131.579C98.7014 131.579 100.228 131.899 100.228 132.294Z" fill="#1F1F1F"/>
<path d="M105.476 123.813C100.071 123.054 97.8075 127.356 96.9092 130.179C96.011 127.356 93.7472 123.054 88.3423 123.813C84.9083 124.294 83.0792 129.394 84.1268 129.691L84.1499 129.718C85.1822 125.466 88.3232 125.109 88.4286 125.098C94.6933 124.696 96.1182 130.826 96.3864 132.376C96.373 132.454 96.3691 132.498 96.3672 132.504L96.4074 132.514C96.4246 132.621 96.4361 132.703 96.4399 132.73L96.9092 132.625L97.3785 132.73C97.3823 132.703 97.3938 132.621 97.411 132.514L97.4512 132.504C97.4512 132.498 97.4455 132.454 97.4321 132.376C97.7002 130.826 99.1251 124.696 105.39 125.098C105.495 125.109 108.636 125.466 109.669 129.718L109.692 129.691C110.739 129.394 108.91 124.294 105.476 123.813Z" fill="#1F1F1F"/>
<defs>
<linearGradient id="paint0_linear" x1="1331.63" y1="157.876" x2="1026.47" y2="373.02" gradientUnits="userSpaceOnUse">
<stop stop-color="#CFE365"/>
<stop offset="1" stop-color="#7EA349"/>
</linearGradient>
<linearGradient id="paint1_linear" x1="387.385" y1="216.905" x2="445.481" y2="340.119" gradientUnits="userSpaceOnUse">
<stop stop-color="#CFE365"/>
<stop offset="1" stop-color="#7EA349"/>
</linearGradient>
<linearGradient id="paint2_linear" x1="676.058" y1="236.157" x2="676.058" y2="383.754" gradientUnits="userSpaceOnUse">
<stop stop-color="#CFE365"/>
<stop offset="1" stop-color="#7EA349"/>
</linearGradient>
<linearGradient id="paint3_linear" x1="0.125977" y1="251.801" x2="504.473" y2="251.801" gradientUnits="userSpaceOnUse">
<stop stop-color="#CFE365"/>
<stop offset="1" stop-color="#7EA349"/>
</linearGradient>
<linearGradient id="paint4_linear" x1="971.849" y1="467.262" x2="971.849" y2="578.986" gradientUnits="userSpaceOnUse">
<stop stop-color="#7EA349"/>
<stop offset="1" stop-color="#517A63"/>
</linearGradient>
<linearGradient id="paint5_linear" x1="512.679" y1="367.868" x2="526.086" y2="554.285" gradientUnits="userSpaceOnUse">
<stop stop-color="#7EA349"/>
<stop offset="1" stop-color="#517A63"/>
</linearGradient>
<linearGradient id="paint6_linear" x1="0.125977" y1="470.774" x2="1064.52" y2="470.774" gradientUnits="userSpaceOnUse">
<stop stop-color="#CFE365"/>
<stop offset="1" stop-color="#7EA349"/>
</linearGradient>
<linearGradient id="paint7_linear" x1="438.082" y1="484.392" x2="667.911" y2="642.718" gradientUnits="userSpaceOnUse">
<stop stop-color="#517A63"/>
<stop offset="0.57204" stop-color="#376658"/>
<stop offset="1" stop-color="#28574D"/>
</linearGradient>
<linearGradient id="paint8_linear" x1="553.695" y1="516.736" x2="1436.56" y2="516.736" gradientUnits="userSpaceOnUse">
<stop stop-color="#CFE365"/>
<stop offset="1" stop-color="#7EA349"/>
</linearGradient>
<linearGradient id="paint9_linear" x1="330.377" y1="515.756" x2="330.377" y2="652.576" gradientUnits="userSpaceOnUse">
<stop stop-color="#517A63"/>
<stop offset="1" stop-color="#28574D"/>
</linearGradient>
<linearGradient id="paint10_linear" x1="314.417" y1="516.328" x2="314.417" y2="634.775" gradientUnits="userSpaceOnUse">
<stop stop-color="#CFE365"/>
<stop offset="1" stop-color="#7EA349"/>
</linearGradient>
</defs>
</svg>
