<svg width="240" height="12" viewBox="0 0 240 12" fill="none" xmlns="http://www.w3.org/2000/svg">
<path d="M24.2519 11.2767V8.97205C24.2519 8.87715 24.2476 8.78331 24.2414 8.69C25.5878 8.97181 27.0463 8.59217 28.0894 7.54902L30 5.63838L28.0894 3.72773C27.0462 2.68458 25.5878 2.305 24.2413 2.58675C24.2476 2.49344 24.2518 2.39954 24.2518 2.3047V0L20.9576 0C20.1581 0 19.4099 0.223965 18.7723 0.612341V0L15.4781 0C14.6785 0 13.9303 0.223965 13.2928 0.612341V0L9.99855 0C7.67556 0 5.78573 1.88983 5.78573 4.21282V4.75917H0V6.51758H5.78573V7.06393C5.78573 9.38692 7.67556 11.2767 9.99855 11.2767H13.2928V10.6644C13.9303 11.0528 14.6785 11.2767 15.4781 11.2767L18.7723 11.2767V10.6644C19.4099 11.0528 20.1581 11.2767 20.9576 11.2767H24.2519ZM22.4935 9.51833H20.9577C19.6043 9.51833 18.5032 8.41732 18.5032 7.06393V6.51758H20.039C21.3924 6.51758 22.4935 7.61865 22.4935 8.97205V9.51833ZM17.0139 1.75836V2.30464C17.0139 3.65804 15.9128 4.75911 14.5594 4.75911H13.0236V4.21276C13.0236 2.85937 14.1247 1.75836 15.4781 1.75836H17.0139ZM13.0236 7.06393V6.51758H14.5594C15.9128 6.51758 17.0139 7.61865 17.0139 8.97205V9.51833L15.4781 9.51833C14.1247 9.51833 13.0236 8.41732 13.0236 7.06393ZM26.846 4.97111L27.5132 5.63838L26.846 6.30564C25.889 7.26257 24.3318 7.26257 23.3748 6.30564L22.7075 5.63838L23.3748 4.97111C24.3318 4.01418 25.889 4.01418 26.846 4.97111ZM22.4935 1.75836V2.30464C22.4935 3.65804 21.3924 4.75911 20.039 4.75911H18.5032V4.21276C18.5032 2.85937 19.6043 1.75836 20.9577 1.75836H22.4935ZM7.54415 4.21276C7.54415 2.85937 8.64516 1.75836 9.99855 1.75836L11.5344 1.75836V2.30464C11.5344 3.65804 10.4333 4.75911 9.0799 4.75911L7.54415 4.75911V4.21276ZM9.99855 9.51833C8.64516 9.51833 7.54415 8.41732 7.54415 7.06393V6.51758L9.0799 6.51758C10.4333 6.51758 11.5344 7.61865 11.5344 8.97205V9.51833H9.99855Z" fill="#F4E858"/>
<path d="M129.252 11.2767V8.97205C129.252 8.87715 129.248 8.78331 129.241 8.69C130.588 8.97181 132.046 8.59217 133.089 7.54902L135 5.63838L133.089 3.72773C132.046 2.68458 130.588 2.305 129.241 2.58675C129.248 2.49344 129.252 2.39954 129.252 2.3047V0L125.958 0C125.158 0 124.41 0.223965 123.772 0.612341V0L120.478 0C119.679 0 118.93 0.223965 118.293 0.612341V0L114.999 0C112.676 0 110.786 1.88983 110.786 4.21282V4.75917H105V6.51758H110.786V7.06393C110.786 9.38692 112.676 11.2767 114.999 11.2767H118.293V10.6644C118.93 11.0528 119.679 11.2767 120.478 11.2767L123.772 11.2767V10.6644C124.41 11.0528 125.158 11.2767 125.958 11.2767H129.252ZM127.493 9.51833H125.958C124.604 9.51833 123.503 8.41732 123.503 7.06393V6.51758H125.039C126.392 6.51758 127.493 7.61865 127.493 8.97205V9.51833ZM122.014 1.75836V2.30464C122.014 3.65804 120.913 4.75911 119.559 4.75911H118.024V4.21276C118.024 2.85937 119.125 1.75836 120.478 1.75836H122.014ZM118.024 7.06393V6.51758H119.559C120.913 6.51758 122.014 7.61865 122.014 8.97205V9.51833L120.478 9.51833C119.125 9.51833 118.024 8.41732 118.024 7.06393ZM131.846 4.97111L132.513 5.63838L131.846 6.30564C130.889 7.26257 129.332 7.26257 128.375 6.30564L127.708 5.63838L128.375 4.97111C129.332 4.01418 130.889 4.01418 131.846 4.97111ZM127.493 1.75836V2.30464C127.493 3.65804 126.392 4.75911 125.039 4.75911H123.503V4.21276C123.503 2.85937 124.604 1.75836 125.958 1.75836H127.493ZM112.544 4.21276C112.544 2.85937 113.645 1.75836 114.999 1.75836L116.534 1.75836V2.30464C116.534 3.65804 115.433 4.75911 114.08 4.75911L112.544 4.75911V4.21276ZM114.999 9.51833C113.645 9.51833 112.544 8.41732 112.544 7.06393V6.51758L114.08 6.51758C115.433 6.51758 116.534 7.61865 116.534 8.97205V9.51833H114.999Z" fill="#F4E858"/>
<path d="M234.252 11.2767V8.97205C234.252 8.87715 234.248 8.78331 234.241 8.69C235.588 8.97181 237.046 8.59217 238.089 7.54902L240 5.63838L238.089 3.72773C237.046 2.68458 235.588 2.305 234.241 2.58675C234.248 2.49344 234.252 2.39954 234.252 2.3047V0L230.958 0C230.158 0 229.41 0.223965 228.772 0.612341V0L225.478 0C224.679 0 223.93 0.223965 223.293 0.612341V0L219.999 0C217.676 0 215.786 1.88983 215.786 4.21282V4.75917H210V6.51758H215.786V7.06393C215.786 9.38692 217.676 11.2767 219.999 11.2767H223.293V10.6644C223.93 11.0528 224.679 11.2767 225.478 11.2767L228.772 11.2767V10.6644C229.41 11.0528 230.158 11.2767 230.958 11.2767H234.252ZM232.493 9.51833H230.958C229.604 9.51833 228.503 8.41732 228.503 7.06393V6.51758H230.039C231.392 6.51758 232.493 7.61865 232.493 8.97205V9.51833ZM227.014 1.75836V2.30464C227.014 3.65804 225.913 4.75911 224.559 4.75911H223.024V4.21276C223.024 2.85937 224.125 1.75836 225.478 1.75836H227.014ZM223.024 7.06393V6.51758H224.559C225.913 6.51758 227.014 7.61865 227.014 8.97205V9.51833L225.478 9.51833C224.125 9.51833 223.024 8.41732 223.024 7.06393ZM236.846 4.97111L237.513 5.63838L236.846 6.30564C235.889 7.26257 234.332 7.26257 233.375 6.30564L232.708 5.63838L233.375 4.97111C234.332 4.01418 235.889 4.01418 236.846 4.97111ZM232.493 1.75836V2.30464C232.493 3.65804 231.392 4.75911 230.039 4.75911H228.503V4.21276C228.503 2.85937 229.604 1.75836 230.958 1.75836H232.493ZM217.544 4.21276C217.544 2.85937 218.645 1.75836 219.999 1.75836L221.534 1.75836V2.30464C221.534 3.65804 220.433 4.75911 219.08 4.75911L217.544 4.75911V4.21276ZM219.999 9.51833C218.645 9.51833 217.544 8.41732 217.544 7.06393V6.51758L219.08 6.51758C220.433 6.51758 221.534 7.61865 221.534 8.97205V9.51833H219.999Z" fill="#F4E858"/>
</svg>
