<svg width="466" height="550" viewBox="0 0 666 750" fill="none" xmlns="http://www.w3.org/2000/svg">
<path d="M665.446 736.09C665.446 743.772 516.481 750 332.723 750C148.965 750 0 743.772 0 736.09C0 728.408 148.965 722.18 332.723 722.18C516.481 722.18 665.446 728.408 665.446 736.09Z" fill="black" fill-opacity="0.12"/>
<path d="M489.801 348.772H496.417L622.632 736.09H616.017L489.801 348.772Z" fill="#E1B33B"/>
<path d="M483.532 408.527L484.437 410.211L487.091 415.147H516.436L513.204 409.128L512.877 408.527H483.532Z" fill="#E0AD32"/>
<path d="M483.532 408.527L484.437 410.211C487.592 410.76 491.98 411.103 496.828 411.103C504.429 411.103 510.893 410.279 513.204 409.128L512.877 408.527H483.532Z" fill="#E1C06C"/>
<path d="M469.774 362.536L470.654 364.221L473.233 369.156H501.734L498.594 363.137L498.276 362.536H469.774Z" fill="#E0AD32"/>
<path d="M469.774 362.536L470.654 364.221C473.719 364.771 477.979 365.116 482.689 365.116C490.072 365.116 496.35 364.29 498.594 363.137L498.276 362.536H469.774Z" fill="#E1C06C"/>
<path d="M499.983 456.507L500.849 458.193L503.391 463.127H531.475L528.38 457.109L528.068 456.507H499.983Z" fill="#E0AD32"/>
<path d="M499.983 456.507L500.849 458.193C503.87 458.744 508.069 459.085 512.708 459.085C519.984 459.085 526.171 458.261 528.38 457.109L528.068 456.507H499.983Z" fill="#E1C06C"/>
<path d="M515.556 504.489L516.416 506.173L518.938 511.109H546.822L543.75 505.091L543.439 504.489H515.556Z" fill="#E0AD32"/>
<path d="M515.556 504.489L516.416 506.173C519.415 506.724 523.583 507.067 528.192 507.067C535.414 507.067 541.557 506.243 543.75 505.091L543.439 504.489H515.556Z" fill="#E1C06C"/>
<path d="M531.034 552.469L531.914 554.155L534.497 559.091H563.046L559.898 553.071L559.582 552.469H531.034Z" fill="#E0AD32"/>
<path d="M531.034 552.469L531.914 554.155C534.983 554.706 539.253 555.049 543.968 555.049C551.363 555.049 557.653 554.224 559.898 553.071L559.582 552.469H531.034Z" fill="#E1C06C"/>
<path d="M546.938 600.451L547.836 602.137L550.467 607.071H579.541L576.34 601.053L576.015 600.451H546.938Z" fill="#E0AD32"/>
<path d="M546.938 600.451L547.836 602.137C550.962 602.686 555.307 603.031 560.113 603.031C567.644 603.031 574.051 602.206 576.34 601.053L576.015 600.451H546.938Z" fill="#E1C06C"/>
<path d="M562.843 648.433L563.73 650.117L566.337 655.053H595.139L591.966 649.035L591.646 648.433H562.843Z" fill="#E0AD32"/>
<path d="M562.843 648.433L563.73 650.117C566.829 650.669 571.134 651.011 575.895 651.011C583.355 651.011 589.698 650.186 591.966 649.035L591.646 648.433H562.843Z" fill="#E1C06C"/>
<path d="M577.459 696.413L578.348 698.099L580.962 703.033H609.84L606.658 697.015L606.336 696.413H577.459Z" fill="#E0AD32"/>
<path d="M577.459 696.413L578.348 698.099C581.454 698.651 585.772 698.994 590.544 698.994C598.023 698.994 604.385 698.168 606.658 697.015L606.336 696.413H577.459Z" fill="#E1C06C"/>
<path d="M460.031 348.772H466.646L592.862 736.09H586.248L460.031 348.772Z" fill="#E1B33B"/>
<path d="M456.777 348.772H450.162L450.999 736.09H457.613L456.777 348.772Z" fill="#E1B33B"/>
<path d="M430.823 348.772H424.208L425.046 736.09H431.661L430.823 348.772Z" fill="#E1B33B"/>
<path d="M495.853 354.647H424.208V348.772H495.853V354.647Z" fill="#E1B33B"/>
<path d="M463.487 185.219C429.592 185.343 408.682 153.495 406.612 139.648C405.735 139.676 404.845 139.567 404.014 139.278C401.213 138.255 399.289 135.625 396.552 134.461C395.285 133.923 393.842 133.702 392.546 133.229C391.254 132.754 391.245 130.893 392.503 130.336C394.425 129.509 396.769 129.429 398.933 129.422C397.038 127.838 394.131 127.484 392.396 125.915C391.599 125.207 391.87 123.861 392.897 123.579C393.625 123.373 394.519 123.391 395.263 123.492C397.634 123.781 399.983 124.08 402.33 124.38C401.199 123.487 400.086 122.604 398.955 121.713C398.059 121.019 397.112 119.796 397.815 118.923C398.431 118.159 399.645 118.56 400.508 119.033C402.733 120.255 404.931 121.577 407.063 122.963C407.439 123.221 407.819 123.465 408.265 123.565C409.143 123.745 410.048 123.221 410.672 122.575C411.298 121.913 411.775 121.127 412.429 120.493C412.746 120.201 413.125 119.935 413.559 119.845C414.352 119.666 415.197 120.132 415.671 120.808C416.135 121.463 416.292 122.302 416.365 123.122C416.563 125.406 416.113 128.569 415.091 131.502C416.169 134.134 417.338 136.602 418.601 138.902C431.83 162.965 454.796 169.422 464.647 171.117C465.205 171.213 465.752 171.377 466.255 171.597C468.356 172.503 469.915 174.387 470.376 176.712C471.258 181.081 467.944 185.204 463.487 185.219Z" fill="#C56439"/>
<path d="M466.255 171.597C461.744 173.917 452.612 176.369 437.632 170.92C417.794 163.713 418.159 143.929 418.602 138.902C431.831 162.965 454.797 169.422 464.647 171.117C465.205 171.213 465.753 171.377 466.255 171.597Z" fill="#CD683A"/>
<path d="M442.675 40.7575L407.924 245.895C407.443 248.697 404.796 250.589 401.976 250.125L343.186 240.168C340.624 239.739 338.766 237.452 338.904 234.872C339.988 215.046 326.041 197.147 306.01 193.759C285.976 190.372 266.926 202.683 261.423 221.735C260.7 224.246 258.19 225.777 255.628 225.33L196.838 215.373C194.036 214.909 192.144 212.244 192.609 209.424L206.88 125.169L227.36 4.28807C227.824 1.48398 230.489 -0.405945 233.31 0.0746613L410.76 30.1139L438.447 34.8078C441.247 35.2902 443.139 37.9552 442.675 40.7575Z" fill="#EDDC10"/>
<path d="M412.533 50.3713C412.533 114.679 360.416 166.799 296.106 166.799C260.271 166.799 228.237 150.617 206.881 125.169L227.36 4.28809C227.825 1.48399 230.49 -0.40593 233.31 0.0746613L410.761 30.1139C411.932 36.6832 412.533 43.4568 412.533 50.3713Z" fill="#F0E021"/>
<path d="M497.499 150.064C502.52 140.142 500.231 128.188 491.568 121.982C481.918 115.069 468.042 117.913 460.576 128.335C453.111 138.758 453.008 152.173 462.658 159.087C464.844 160.652 467.35 161.725 469.995 162.365L467.921 176.579L481.531 178.564L483.994 161.702C485.609 161.158 487.175 160.462 488.652 159.595C494.337 161.92 502.921 159.185 502.591 154.108C502.381 150.908 499.682 150.151 497.499 150.064Z" fill="#CF7244"/>
<path d="M469.992 162.387C469.992 162.387 473.719 164.17 480.236 162.387C480.236 162.387 479.015 167.783 469.309 167.073L469.992 162.387Z" fill="#C56439"/>
<path d="M499.342 152.272C498.363 152.151 497.56 152.489 496.776 152.881C495.979 153.275 495.237 153.741 494.554 154.263L493.654 152.874C494.657 152.269 495.875 152.576 496.554 153.253C497.248 153.92 497.562 154.748 497.593 155.653C497.631 156.578 497.026 157.516 496.299 157.866C495.586 158.253 494.85 158.339 494.133 158.318C494.733 157.92 495.329 157.554 495.721 157.109C496.113 156.652 496.22 156.218 496.119 155.752C496.041 155.286 495.736 154.778 495.421 154.504C495.112 154.242 494.718 154.188 494.505 154.296L494.427 154.336C494.021 154.542 493.524 154.381 493.318 153.973C493.123 153.593 493.257 153.134 493.604 152.907C494.462 152.35 495.416 151.96 496.402 151.756C497.372 151.566 498.581 151.575 499.342 152.272Z" fill="#C56439"/>
<path d="M508.876 135.726V135.744C508.773 137.686 508.034 139.56 507.174 141.332C505.936 143.894 504.285 146.456 502.462 148.76C501.895 149.483 501.293 150.187 500.691 150.858C500.691 150.858 498.303 150.066 497.528 150.066C495.222 150.05 490.27 152.027 490.27 152.027C488.689 151.889 487.932 150.343 487.639 148.193C487.09 143.791 488.534 136.792 489.273 133.628H489.291C489.515 132.597 489.686 131.979 489.686 131.979C474.797 139.715 465.183 127.523 465.183 127.523C458.597 130.396 455.52 140.145 455.52 140.145C454.454 139.097 453.37 137.807 453.164 136.346C452.959 134.884 453.078 133.388 453.233 131.91C453.593 128.676 454.386 125.185 455.985 122.365C456.001 122.365 456.001 122.349 456.001 122.349C455.846 122.125 455.676 121.901 455.52 121.66C455.347 121.42 455.21 121.18 455.056 120.921C454.436 119.958 453.887 118.977 453.593 117.911V117.895C453.455 117.362 453.387 116.829 453.387 116.278C453.405 113.304 455.864 110.898 458.597 109.642C458.771 109.573 458.959 109.487 459.13 109.418C463.584 107.631 468.863 108.025 473.008 110.468C473.369 110.69 473.713 110.966 473.971 111.291C473.85 110.69 473.953 110.019 474.211 109.452C474.623 108.542 475.362 107.819 476.172 107.199C480.212 104.104 486.058 103.537 490.631 105.808C493.314 107.149 495.481 109.349 497.081 111.911C497.992 113.339 498.713 114.887 499.264 116.45C500.554 120.114 501.035 123.982 501.38 127.868C501.448 128.676 501.499 129.467 501.568 130.275C503.082 129.037 505.42 129.124 506.897 130.412C508.361 131.702 508.979 133.766 508.876 135.726Z" fill="#441D18"/>
<path d="M501.38 127.868C501.225 127.99 501.035 128.109 500.865 128.212C499.282 129.124 497.167 129.209 495.687 128.161C494.742 127.473 494.037 126.373 492.903 126.167C491.647 125.926 490.494 126.922 489.241 127.13C488.019 127.354 486.798 126.837 485.663 126.32C484.254 125.7 482.843 125.064 481.434 124.428C480.162 123.879 478.787 123.294 477.46 123.621C475.69 124.051 474.555 125.943 472.785 126.373C471.272 126.75 469.706 125.977 468.45 125.064C467.196 124.154 465.993 123.054 464.497 122.624C464.17 122.539 463.827 122.486 463.5 122.555C462.45 122.795 462.141 124.172 461.297 124.858C460.558 125.462 459.46 125.428 458.598 125.014C457.738 124.584 457.086 123.861 456.518 123.104C456.329 122.864 456.155 122.623 455.985 122.365C455.814 122.143 455.658 121.901 455.521 121.66C455.348 121.42 455.21 121.18 455.057 120.922C454.506 119.959 454.025 118.945 453.593 117.911V117.895C453.456 117.362 453.387 116.829 453.387 116.278C453.405 113.304 455.864 110.898 458.598 109.642C461.16 110.397 463.619 111.499 465.872 112.909C467.025 113.631 468.262 114.473 469.621 114.336C471.236 114.182 472.423 112.703 473.988 112.291C476.291 111.687 478.442 113.528 480.523 114.663C484.304 116.726 489.172 116.605 492.85 114.37C494.243 113.528 495.533 112.359 497.082 111.911C497.992 113.339 498.713 114.887 499.264 116.45C500.554 120.114 501.035 123.982 501.38 127.868Z" fill="#61251E"/>
<path d="M508.877 135.726V135.744C508.774 137.686 508.035 139.56 507.175 141.332C505.937 143.894 504.286 146.456 502.463 148.76C502.17 148.502 501.861 148.279 501.483 148.158C500.52 147.849 499.489 148.314 498.491 148.227C496.238 148.037 494.692 145.116 492.455 145.475C491.423 145.631 490.65 146.473 489.792 147.11C489.136 147.591 488.415 147.952 487.64 148.193C487.091 143.791 488.534 136.792 489.273 133.628H489.291C490.513 133.457 491.821 133.869 492.869 134.47C494.536 135.399 495.946 136.774 497.716 137.428C500.21 138.34 503.032 137.67 505.386 136.449C506.47 135.882 507.845 135.227 508.877 135.726Z" fill="#61251E"/>
<path d="M479.376 171.952C474.433 171.447 468.281 168.782 464.288 171.153C455.54 176.344 451.355 177.319 449.857 184.561C449.789 184.901 453.549 211.35 453.549 211.35L482.726 213.836C482.726 213.836 487.38 201.369 490.901 190.35C493.55 182.062 488.032 172.83 479.376 171.952Z" fill="#A7E2EC"/>
<path d="M490.401 186.754C490.401 186.754 481.138 197.738 451.975 193.244C451.975 193.244 466.014 209.386 477.62 205.409C489.227 201.433 490.401 186.754 490.401 186.754Z" fill="#89D8E2"/>
<path d="M486.866 190.268C455.88 204.007 423.932 183.253 416.471 171.406C415.68 171.783 414.818 172.042 413.942 172.11C410.968 172.3 408.148 170.667 405.174 170.701C403.799 170.717 402.388 171.095 401.013 171.182C399.636 171.269 398.879 169.567 399.81 168.551C401.235 167.021 403.351 166.007 405.329 165.129C402.955 164.441 400.151 165.285 397.934 164.546C396.919 164.219 396.628 162.878 397.452 162.208C398.037 161.725 398.863 161.382 399.586 161.174C401.871 160.488 404.14 159.816 406.411 159.145C405.018 158.786 403.643 158.424 402.249 158.063C401.15 157.787 399.791 157.048 400.082 155.963C400.343 155.02 401.614 154.899 402.594 154.984C405.121 155.208 407.665 155.535 410.177 155.947C410.623 156.034 411.071 156.103 411.517 156.016C412.395 155.828 413.013 154.984 413.322 154.142C413.633 153.282 413.754 152.372 414.097 151.528C414.269 151.132 414.511 150.737 414.872 150.48C415.525 149.998 416.488 150.084 417.192 150.514C417.881 150.926 418.361 151.633 418.757 152.354C419.859 154.366 420.717 157.443 420.958 160.538C423.005 162.517 425.068 164.305 427.149 165.902C448.933 182.617 472.56 179.3 482.259 176.891C482.808 176.754 483.376 176.685 483.927 176.685C486.212 176.667 488.397 177.767 489.755 179.712C492.317 183.358 490.941 188.463 486.866 190.268Z" fill="#CF7244"/>
<path d="M483.927 176.685C480.729 180.622 473.352 186.537 457.445 187.569C436.382 188.944 428.765 170.683 427.149 165.902C448.933 182.617 472.56 179.3 482.259 176.891C482.808 176.754 483.376 176.685 483.927 176.685Z" fill="#D87C4E"/>
<path d="M455.661 340.354C455.661 340.354 458.741 345.8 456.199 348.772H435.671C435.671 348.772 433.523 345.87 443.588 340.354H455.661Z" fill="#47B6DB"/>
<path d="M449.162 219.507C449.162 219.507 430.261 264.862 438.534 302.804L443.162 340.547H456.371C456.371 340.547 456.947 274.801 469.97 242.645C469.97 242.645 470.469 217.845 449.162 219.507Z" fill="#323C6D"/>
<path d="M457.203 245.817C456.048 249.559 455.179 253.371 454.503 257.216C453.75 261.045 453.217 264.913 452.758 268.783C451.865 276.53 451.383 284.319 451.305 292.117C451.085 299.917 451.43 307.719 451.853 315.515C452.037 319.416 452.449 323.302 452.727 327.203L453.887 338.885C453.17 335.037 452.528 331.17 451.891 327.3C451.441 323.408 450.879 319.522 450.532 315.616C450.194 311.706 449.874 307.793 449.78 303.868C449.721 301.906 449.616 299.944 449.591 297.982L449.589 292.09C449.809 284.242 450.274 276.382 451.452 268.608C452.678 260.86 454.261 253.098 457.203 245.817Z" fill="#2B3156"/>
<path d="M473.645 340.354C473.645 340.354 476.726 345.8 474.182 348.772H453.655C453.655 348.772 451.505 345.87 461.57 340.354H473.645Z" fill="#47B6DB"/>
<path d="M482.726 213.836L453.548 211.35C453.404 211.53 453.259 211.711 453.118 211.894C444.211 223.188 448.352 238.711 459.436 245.284C455.566 256.985 450.952 278.077 456.343 302.804L460.969 340.547H474.178C474.178 340.547 474.965 282.592 485.25 248.502C485.376 248.087 485.504 247.671 485.631 247.266C485.911 246.376 486.191 245.49 486.485 244.637C486.617 244.256 486.679 243.855 486.72 243.452C486.977 242.421 487.194 241.387 487.293 240.337C488.668 225.629 482.726 213.836 482.726 213.836Z" fill="#354988"/>
<path d="M470.712 212.813C470.617 215.055 470.586 217.256 470.691 219.43C470.817 221.598 471.076 223.746 471.71 225.742C472.315 227.742 473.383 229.551 474.985 230.819C476.603 232.093 478.733 232.68 480.951 232.993C478.765 233.394 476.303 233.202 474.227 231.927C472.142 230.671 470.763 228.483 470.071 226.261C469.397 224.01 469.206 221.686 469.356 219.422C469.502 217.158 469.919 214.92 470.712 212.813Z" fill="#323D6F"/>
<path d="M478.802 214.508C480.786 219.384 482.145 224.528 482.785 229.797C483.059 232.436 483.113 235.125 482.689 237.792C482.199 240.491 481.388 242.923 480.772 245.496C478.165 255.669 475.682 265.883 473.765 276.2C471.783 286.486 470.034 296.891 470.795 307.325C471.205 317.847 471.588 328.368 471.781 338.885C470.876 328.393 470.161 317.903 469.476 307.417C469.312 304.817 469.075 302.13 469.169 299.469C469.209 296.809 469.431 294.166 469.702 291.535C470.255 286.272 471.102 281.058 472.08 275.876C474.146 265.531 476.613 255.281 479.502 245.149C483.739 235.302 482.002 224.465 478.802 214.508Z" fill="#323D6F"/>
<path d="M144.22 395.287C168.559 416.359 203.337 406.364 213.401 397.672C214.015 398.234 214.723 398.707 215.502 399.012C218.151 400.01 221.166 399.307 223.86 400.163C225.105 400.559 226.279 401.294 227.506 401.755C228.731 402.212 229.891 400.877 229.329 399.699C228.456 397.912 226.816 396.405 225.264 395.057C227.609 395.092 229.923 396.635 232.142 396.577C233.156 396.561 233.792 395.426 233.228 394.588C232.83 393.988 232.176 393.446 231.578 393.059C229.69 391.8 227.815 390.56 225.938 389.323C227.304 389.38 228.653 389.433 230.019 389.491C231.094 389.548 232.534 389.252 232.568 388.188C232.597 387.256 231.474 386.793 230.561 386.602C228.202 386.101 225.799 385.695 223.405 385.373C222.975 385.328 222.548 385.266 222.167 385.062C221.423 384.649 221.094 383.711 221.047 382.86C221.003 381.993 221.148 381.131 221.068 380.271C221.021 379.864 220.913 379.438 220.657 379.104C220.196 378.486 219.298 378.296 218.537 378.493C217.798 378.675 217.166 379.181 216.606 379.729C215.048 381.252 213.413 383.808 212.338 386.553C209.93 387.783 207.559 388.835 205.227 389.711C180.801 398.853 160.257 389.288 152.115 384.412C151.653 384.135 151.158 383.913 150.657 383.763C148.583 383.113 146.296 383.507 144.522 384.894C141.184 387.496 141.018 392.517 144.22 395.287Z" fill="#F29E57"/>
<path d="M150.658 383.763C152.472 388.226 157.532 395.646 171.696 400.993C190.45 408.082 202.432 393.607 205.227 389.711C180.802 398.853 160.257 389.288 152.116 384.412C151.653 384.135 151.158 383.913 150.658 383.763Z" fill="#F8A660"/>
<path d="M402.714 279.132V482.895C402.714 486.935 399.448 490.203 395.406 490.203H339.816C336.273 490.203 333.16 492.729 332.61 496.219C329.721 515.203 313.318 529.749 293.527 529.749C273.735 529.749 257.33 515.203 254.441 496.219C253.892 492.729 250.779 490.203 247.237 490.203H191.645C187.605 490.203 184.337 486.935 184.337 482.895V279.132C184.337 275.092 187.605 271.824 191.645 271.824H247.237C250.779 271.824 253.892 269.298 254.441 265.805C257.33 246.824 273.735 232.276 293.527 232.276C313.318 232.276 329.721 246.824 332.61 265.805C333.16 269.298 336.273 271.824 339.816 271.824H395.406C399.448 271.824 402.714 275.092 402.714 279.132Z" fill="#019049"/>
<path d="M402.715 279.132V448.967C356.444 461.382 303 446.165 266.565 405.602C231.814 366.897 221.651 315.276 235.819 271.824H247.238C250.779 271.824 253.892 269.298 254.442 265.805C257.331 246.824 273.736 232.276 293.527 232.276C313.318 232.276 329.722 246.824 332.611 265.805C333.16 269.298 336.273 271.824 339.816 271.824H395.407C399.448 271.824 402.715 275.092 402.715 279.132Z" fill="#01A453"/>
<path d="M164.36 411.965H157.746L42.813 736.09H49.4288L164.36 411.965Z" fill="#E1B33B"/>
<path d="M171.004 456.507L170.194 458.193L167.822 463.127H141.601L144.488 457.109L144.78 456.507H171.004Z" fill="#E0AD32"/>
<path d="M171.004 456.507L170.195 458.193C167.374 458.744 163.454 459.085 159.123 459.085C152.33 459.085 146.552 458.261 144.488 457.109L144.781 456.507H171.004Z" fill="#E1C06C"/>
<path d="M154.351 504.489L153.544 506.173L151.172 511.109H124.948L127.837 505.091L128.13 504.489H154.351Z" fill="#E0AD32"/>
<path d="M154.351 504.489L153.543 506.173C150.725 506.724 146.804 507.067 142.47 507.067C135.678 507.067 129.9 506.243 127.837 505.091L128.13 504.489H154.351Z" fill="#E1C06C"/>
<path d="M136.678 552.469L135.87 554.155L133.496 559.091H107.274L110.163 553.071L110.456 552.469H136.678Z" fill="#E0AD32"/>
<path d="M136.677 552.469L135.869 554.155C133.049 554.706 129.128 555.049 124.796 555.049C118.004 555.049 112.226 554.224 110.163 553.071L110.455 552.469H136.677Z" fill="#E1C06C"/>
<path d="M119.431 600.451L118.621 602.137L116.249 607.071H90.0259L92.9149 601.053L93.2076 600.451H119.431Z" fill="#E0AD32"/>
<path d="M119.432 600.451L118.623 602.137C115.802 602.686 111.883 603.031 107.551 603.031C100.757 603.031 94.9811 602.206 92.916 601.053L93.2087 600.451H119.432Z" fill="#E1C06C"/>
<path d="M103.227 648.433L102.418 650.117L100.046 655.053H73.8223L76.7113 649.035L77.004 648.433H103.227Z" fill="#E0AD32"/>
<path d="M103.227 648.433L102.417 650.117C99.5971 650.669 95.6765 651.011 91.3439 651.011C84.5523 651.011 78.7743 650.186 76.7109 649.035L77.0036 648.433H103.227Z" fill="#E1C06C"/>
<path d="M85.9054 696.413L85.0959 698.099L82.7237 703.033H56.5015L59.3901 697.015L59.683 696.413H85.9054Z" fill="#E0AD32"/>
<path d="M85.9054 696.413L85.096 698.099C82.2774 698.651 78.3568 698.994 74.0224 698.994C67.2307 698.994 61.4538 698.168 59.3901 697.015L59.683 696.413H85.9054Z" fill="#E1C06C"/>
<path d="M189.102 411.965H182.488L67.5562 736.09H74.1707L189.102 411.965Z" fill="#E1B33B"/>
<path d="M152.024 440.795C152.024 440.795 159.489 473.084 142.007 507.759L126.735 542.622L115.499 538.283C115.499 538.283 132.408 482.972 127.822 448.581C127.822 448.581 131.805 433.866 152.024 440.795Z" fill="#F8A660"/>
<path d="M136.76 496.151C134.524 501.259 129.727 503.7 123.761 504.438C123.811 504.182 123.864 503.922 123.914 503.683C128.11 502.48 131.394 500.124 133.131 496.151C138.892 482.945 134.695 455.932 132.014 442.382C132.89 441.608 133.956 440.902 135.228 440.337C137.843 453.009 142.829 482.239 136.76 496.151Z" fill="#F79848"/>
<path d="M115.458 538.283C115.458 538.283 110.871 542.538 112.394 546.142L131.956 552.361C131.956 552.361 134.883 550.247 126.962 541.94L115.458 538.283Z" fill="#31947B"/>
<path d="M138.688 499.315C137.912 499.867 137.662 500.588 137.539 501.304C137.501 501.663 137.442 502.075 137.491 502.37C137.529 502.681 137.594 502.803 137.738 502.914C138.013 503.179 138.425 503.181 138.786 502.82C138.932 502.671 139.015 502.388 138.952 502.207C138.997 502.028 138.452 501.83 138.242 502.269C138.013 501.757 138.826 501.121 139.509 501.573C140.116 501.999 140.231 502.776 139.997 503.398C139.776 504.03 139.236 504.498 138.562 504.691C137.852 504.868 137.122 504.646 136.6 504.202C136.063 503.736 135.823 502.95 135.866 502.39C135.917 501.804 136.04 501.345 136.275 500.872C136.681 499.938 137.709 499.125 138.688 499.315Z" fill="#F79848"/>
<path d="M130.255 434.047C130.255 434.047 141.002 477.894 133.123 495.949C125.243 514.003 85.3177 498.745 74.6597 492.723L77.4258 482.768C77.4258 482.768 109.288 483.912 116.907 486.92C116.907 486.92 96.469 456.4 109.208 434.047H130.255Z" fill="#F8A660"/>
<path d="M77.6546 483.045C77.6546 483.045 73.2877 478.865 69.8078 480.369C69.694 480.419 69.6091 480.522 69.5784 480.643L64.5791 500.35C64.5791 500.35 67.3308 501.304 75.1541 492.904L77.6546 483.045Z" fill="#31947B"/>
<path d="M126.615 490.14C125.838 490.694 125.589 491.415 125.466 492.131C125.428 492.49 125.368 492.902 125.417 493.195C125.457 493.506 125.52 493.629 125.665 493.739C125.939 494.006 126.353 494.006 126.713 493.645C126.859 493.498 126.942 493.213 126.881 493.032C126.924 492.852 126.377 492.655 126.169 493.094C125.939 492.582 126.752 491.946 127.435 492.396C128.041 492.825 128.158 493.6 127.923 494.225C127.703 494.857 127.163 495.323 126.489 495.518C125.779 495.694 125.049 495.471 124.527 495.027C123.99 494.561 123.748 493.777 123.795 493.215C123.845 492.629 123.966 492.169 124.201 491.699C124.608 490.765 125.636 489.952 126.615 490.14Z" fill="#F79848"/>
<path d="M132.4 381.028C137.327 381.682 142.688 382.419 147.278 383.113C154.59 384.217 158.439 395.581 158.222 402.971C158.213 403.318 158.191 403.652 158.161 403.975C157.651 409.126 144.838 425.037 144.838 425.037L119.469 420.375C119.469 420.375 117.825 407.173 116.948 395.641C116.287 386.963 123.774 379.882 132.4 381.028Z" fill="#F8A660"/>
<path d="M145.753 424.672L145.512 425.032C156.774 440.01 156.001 459.457 154.935 468.038C154.608 470.806 154.246 472.439 154.246 472.439H108.68C89.9023 445.202 118.292 419.702 118.292 419.702L117.593 403.464C117.584 403.246 117.851 403.146 118.001 403.305C123.127 408.736 127.75 405.121 127.75 405.121C135.057 397.468 124.328 382.441 124.328 382.441C127.183 380.48 129.452 380.909 129.452 380.909C134.919 387.254 144.927 394.34 145.65 393.05C146.336 391.812 143.671 383.351 143.449 382.594C143.431 382.578 143.449 382.544 143.483 382.56L149.948 383.507C149.966 383.507 149.982 383.525 149.982 383.525L156.568 399.946C157.927 403.316 157.515 407.132 155.502 410.158L145.753 424.672Z" fill="#31947B"/>
<path d="M119.334 399.233C144.959 421.42 181.573 410.895 192.17 401.744C192.817 402.337 193.563 402.834 194.381 403.155C197.173 404.205 200.346 403.466 203.18 404.367C204.492 404.785 205.73 405.558 207.02 406.042C208.312 406.525 209.531 405.119 208.94 403.876C208.021 401.995 206.295 400.409 204.66 398.992C207.13 399.029 209.564 400.651 211.902 400.593C212.968 400.575 213.638 399.379 213.045 398.497C212.626 397.865 211.938 397.296 211.307 396.888C209.32 395.561 207.345 394.257 205.37 392.952C206.808 393.016 208.228 393.072 209.667 393.131C210.799 393.189 212.314 392.878 212.351 391.758C212.38 390.777 211.199 390.293 210.236 390.087C207.753 389.563 205.224 389.133 202.703 388.795C202.25 388.746 201.802 388.681 201.399 388.47C200.617 388.033 200.27 387.046 200.221 386.15C200.174 385.238 200.326 384.331 200.243 383.424C200.194 382.995 200.078 382.547 199.809 382.195C199.325 381.545 198.378 381.346 197.579 381.55C196.801 381.743 196.134 382.278 195.545 382.854C193.904 384.455 192.184 387.149 191.05 390.038C188.517 391.334 186.02 392.441 183.563 393.363C157.847 402.989 136.22 392.918 127.647 387.783C127.161 387.492 126.639 387.261 126.111 387.098C123.931 386.416 121.52 386.831 119.652 388.291C116.138 391.032 115.963 396.318 119.334 399.233Z" fill="#F8A660"/>
<path d="M154.005 412.393L151.53 416.073C142.055 415.369 132.237 412.514 123.398 406.256C125.72 406.48 127.404 405.377 127.697 405.153C136.158 410.005 145.287 412.068 154.005 412.393Z" fill="#2F826B"/>
<path d="M126.111 387.098C128.021 391.8 133.349 399.61 148.26 405.24C168.006 412.706 180.621 397.464 183.563 393.363C157.847 402.989 136.22 392.918 127.647 387.783C127.161 387.492 126.639 387.261 126.111 387.098Z" fill="#F9AD6D"/>
<path d="M154.934 468.038C153.404 468.003 151.857 467.694 150.464 467.176C142.038 464.151 136.088 456.567 131.84 448.675C130.552 446.32 129.383 443.843 128.953 441.178C128.557 438.685 128.85 436.105 129.555 433.664C130.225 431.361 131.291 429.089 133.062 427.456C135.333 425.377 138.531 424.551 141.608 424.585C142.726 424.585 144.204 424.603 145.752 424.672L145.512 425.031C156.774 440.009 156 459.457 154.934 468.038Z" fill="#33AD8D"/>
<path d="M162.094 344.47C158.367 332.204 146.137 325.06 134.78 328.511C126.376 331.065 120.819 338.706 119.998 347.476C118.002 346.434 114.569 345.306 112.777 348.56C110.488 352.716 116.087 358.319 121.829 359.303C123.829 363.896 127.348 367.607 131.54 370.133L129.48 381.349L143.011 383.836L144.859 373.761C146.695 373.712 148.511 373.459 150.258 372.928C161.615 369.477 165.823 356.738 162.094 344.47Z" fill="#F8A660"/>
<path d="M115.044 349.171C115.93 348.691 117.082 348.909 117.984 349.296C118.896 349.693 119.746 350.259 120.468 350.962C120.748 351.231 120.754 351.675 120.485 351.955C120.23 352.217 119.82 352.237 119.54 352.013L119.494 351.977C119.254 351.78 118.793 351.767 118.407 351.991C118.015 352.226 117.612 352.691 117.446 353.166C117.254 353.641 117.308 354.131 117.634 354.651C117.95 355.173 118.488 355.621 119.019 356.089C118.326 355.941 117.643 355.692 117.03 355.189C116.409 354.705 116.022 353.713 116.231 352.848C116.428 351.997 116.891 351.269 117.662 350.768C118.425 350.255 119.614 350.19 120.432 350.925L119.458 351.941C118.875 351.294 118.217 350.7 117.493 350.174C116.779 349.657 116.022 349.173 115.044 349.171Z" fill="#F29445"/>
<path d="M144.86 373.761C144.86 373.761 140.061 374.672 135.548 371.233C135.548 371.233 138.616 377.891 144.013 378.377L144.86 373.761Z" fill="#F29445"/>
<path d="M176.579 392.992C166.23 392.11 153.765 385.5 153.765 385.5C150.842 383.678 150.103 383.834 150.103 383.834L149.982 383.525L143.259 382.526L144.858 373.756C163.995 371.813 163.412 353.431 163.412 353.431C161.623 353.639 159.303 352.951 156.774 351.747C152.459 349.737 147.507 346.21 143.499 343.098C139.132 339.676 135.9 336.737 135.9 336.737C135.9 336.737 135.28 341.619 131.687 346.313C130.243 348.239 128.283 350.112 125.703 351.626C125.703 351.626 125.444 350.183 119.993 347.482C119.993 347.482 114.99 345.075 113.117 349.494C113.117 349.494 112.978 349.805 112.943 350.338C112.772 352.038 113.426 356.011 121.834 359.296C121.834 359.296 126.46 366.845 131.549 370.129L129.555 380.945C129.555 380.945 127.267 380.412 124.328 382.441C124.328 382.441 116.28 386.172 117.003 396.385L117.587 402.971L117.896 410.606C79.4316 398.947 108.972 356.098 108.972 356.098C108.576 354.362 108.336 352.745 108.249 351.265C107.648 342.463 112.015 338.094 114.956 336.168C116.401 335.241 117.5 334.878 117.5 334.878C117.5 334.878 132.7 313.867 158.837 332.281C159.973 333.073 161.108 333.933 162.277 334.878C162.277 334.878 165.681 336.975 168.158 341.001C170.599 344.972 172.129 350.819 168.57 358.367C168.57 358.367 172.868 361.531 176.377 373.842C179.884 386.172 176.579 392.992 176.579 392.992Z" fill="#ED5027"/>
<path d="M132.358 342.737C132.376 343.975 132.135 345.178 131.687 346.313C130.244 348.239 128.283 350.112 125.703 351.626C125.703 351.626 125.445 350.183 119.994 347.482C119.994 347.482 114.991 345.075 113.117 349.494C113.117 349.494 112.978 349.805 112.944 350.338C111.862 350.974 110.812 351.695 109.591 351.661C109.11 351.644 108.664 351.489 108.25 351.265C107.648 342.463 112.015 338.094 114.957 336.168C115.472 336.582 116.023 336.89 116.659 337.046C118.017 337.355 119.41 336.822 120.803 336.547C122.178 336.271 123.864 336.444 124.585 337.648C125.102 338.524 124.946 339.761 125.653 340.518C126.442 341.362 127.819 341.104 128.954 340.845C130.088 340.589 131.55 340.553 132.117 341.568C132.307 341.911 132.358 342.323 132.358 342.737Z" fill="#F36432"/>
<path d="M168.159 341.001V341.31C168.038 344.267 166.283 347.31 163.447 348.154C162.26 348.515 160.97 348.481 159.802 348.893C158.838 349.22 157.979 349.874 157.412 350.698C157.17 351.025 156.98 351.402 156.774 351.747C152.46 349.737 147.507 346.21 143.5 343.098C145.375 342.152 147.885 341.843 148.969 340.038C149.45 339.246 149.621 338.215 150.413 337.75C151.014 337.389 151.753 337.51 152.46 337.579C153.99 337.75 155.692 337.629 156.827 336.6C157.876 335.653 158.185 334.173 158.632 332.832C158.7 332.645 158.769 332.471 158.838 332.281C159.974 333.073 161.109 333.933 162.278 334.878C162.278 334.878 165.682 336.975 168.159 341.001Z" fill="#F36432"/>
<path d="M399.672 522.873V730.932C399.672 733.787 397.351 736.09 394.512 736.09H186.453C183.599 736.09 181.295 733.787 181.295 730.932V522.873C181.295 520.018 183.599 517.713 186.453 517.713H246.069C248.682 517.713 250.9 519.641 251.193 522.219C253.428 541.941 270.159 557.263 290.483 557.263C310.789 557.263 327.538 541.941 329.774 522.219C330.065 519.641 332.284 517.713 334.88 517.713H394.512C397.351 517.713 399.672 520.018 399.672 522.873Z" fill="#7A3C11"/>
<path d="M382.08 542.424C382.08 604.842 330.273 655.411 266.375 655.411C232.742 655.411 202.445 641.396 181.295 619.025V522.873C181.295 520.018 183.599 517.713 186.453 517.713H246.069C248.682 517.713 250.9 519.64 251.193 522.219C253.428 541.941 270.159 557.263 290.483 557.263C310.789 557.263 327.538 541.941 329.774 522.219C330.065 519.64 332.284 517.713 334.88 517.713H379.294C381.117 525.659 382.08 533.928 382.08 542.424Z" fill="#8B4513"/>
<path d="M472.362 541.311C477.99 539.8 483.05 533.706 480.387 529.778C478.304 526.703 474.988 528.143 473.097 529.363C471.473 520.707 465.234 513.61 456.632 511.839C445.005 509.449 433.487 517.689 430.904 530.248C428.32 542.805 433.682 555.104 445.309 557.494C447.098 557.863 448.93 557.946 450.76 557.826L453.53 567.686L466.773 563.966L463.689 552.986C467.631 550.086 470.793 546.068 472.362 541.311Z" fill="#F8A660"/>
<path d="M450.76 557.826C450.76 557.826 456.592 557.301 460.388 554.148C460.388 554.148 459.543 560.865 452.372 563.561L450.76 557.826Z" fill="#F29445"/>
<path d="M479.425 530.694C478.465 530.512 477.629 530.844 476.834 531.218C476.022 531.596 475.265 532.056 474.568 532.582L473.804 531.401C474.745 530.833 475.901 531.121 476.552 531.769C477.217 532.405 477.533 533.209 477.565 534.082C477.609 534.971 477.041 535.872 476.34 536.23C475.645 536.608 474.926 536.723 474.216 536.738C474.826 536.378 475.439 536.04 475.851 535.587C476.266 535.139 476.411 534.665 476.315 534.165C476.239 533.666 475.934 533.133 475.591 532.83C475.255 532.535 474.799 532.463 474.525 532.609L474.476 532.636C474.134 532.819 473.708 532.689 473.527 532.347C473.354 532.024 473.462 531.626 473.76 531.428C474.604 530.875 475.544 530.481 476.514 530.261C477.471 530.053 478.648 530.055 479.425 530.694Z" fill="#F29445"/>
<path d="M480.625 538.673C476.69 547.219 469.914 546.411 469.914 546.411L472.355 541.304C484.563 536.214 480.178 529.507 480.178 529.507C477.479 526.206 473.334 529.215 473.334 529.215C472.922 536.955 468.382 535.164 468.382 535.164C464.79 534.718 462.329 531.056 460.852 527.874C459.683 525.33 459.131 523.095 459.131 523.095C459.131 523.095 458.358 526.154 455.453 529.319C453.046 531.916 449.194 534.597 443.124 535.665L444.739 533.309C444.739 533.309 438.963 539.531 430.296 537.71L430.932 543.452C430.932 543.452 420.322 538.122 427.871 525.381C429.367 522.871 431.568 520.051 434.697 516.938C435.23 516.406 435.763 515.906 436.298 515.425C451.308 502.03 464.617 511.436 464.617 511.436C464.617 511.436 469.638 509.819 474.315 512.623C474.711 512.863 475.107 513.138 475.501 513.447C479.936 516.956 482.31 522.217 482.654 527.719C482.896 531.417 482.207 535.233 480.625 538.673Z" fill="#231617"/>
<path d="M482.654 527.719C482.139 527.307 481.64 526.774 481.125 526.36C480.059 525.502 478.683 525.055 477.324 525.088C475.02 525.157 473.009 526.568 471.065 527.773C469.105 528.991 466.801 530.111 464.583 529.507C463.276 529.164 462.124 528.235 460.852 527.874C459.683 525.33 459.132 523.095 459.132 523.095C459.132 523.095 458.358 526.154 455.453 529.319C451.514 531.244 446.873 532.293 442.952 530.47C440.871 529.507 439.187 527.841 437.053 527.048C435.523 526.497 433.889 526.429 432.256 526.396C431.103 526.396 429.9 526.396 428.818 525.948C428.491 525.811 428.164 525.621 427.871 525.381C429.367 522.871 431.568 520.051 434.697 516.938C435.23 516.406 435.763 515.906 436.298 515.425C437.604 516.146 438.549 517.436 439.908 518.072C441.989 519.07 444.466 518.313 446.58 517.386C448.696 516.457 450.895 515.339 453.182 515.666C455.453 515.993 457.292 517.678 459.475 518.381C462.519 519.38 465.873 518.313 468.624 516.681C470.617 515.476 472.424 513.982 474.316 512.623C474.711 512.863 475.107 513.138 475.501 513.447C479.936 516.956 482.311 522.217 482.654 527.719Z" fill="#341A18"/>
<path d="M483.01 728.011C483.01 728.011 485.171 733.037 483.298 734.835C481.422 736.632 462.372 736.444 461.862 734.621C461.353 732.798 470.999 727.866 470.999 727.866L483.01 728.011Z" fill="#203835"/>
<path d="M450.663 620.456C450.663 620.456 437.815 675.802 439.248 681.963C440.666 688.07 471 727.88 471 727.88L483.011 728.011C483.011 728.011 470.725 687.297 462.989 677.609C462.989 677.609 477.952 650.441 473.479 630.666C469.007 610.891 450.663 620.456 450.663 620.456Z" fill="#2A6658"/>
<path d="M471.334 638.966C469.556 645.84 467.652 652.676 465.695 659.498C463.798 666.337 461.682 673.108 459.677 679.914L459.639 679.329C461.478 683.262 463.227 687.234 464.992 691.199L470.279 703.101C473.712 711.074 477.154 719.045 480.381 727.114C476.44 719.368 472.716 711.525 468.987 703.686L463.525 691.864C461.708 687.924 459.876 683.987 458.132 680.014L458.123 679.996C458.042 679.812 458.036 679.609 458.094 679.43C460.239 672.667 462.271 665.869 464.524 659.141C466.716 652.39 468.96 645.658 471.334 638.966Z" fill="#265249"/>
<path d="M466.851 638.233C465.115 645.324 463.238 652.374 461.315 659.413C459.451 666.466 457.355 673.453 455.387 680.478L455.346 679.901C457.163 683.785 458.869 687.718 460.621 691.631L465.834 703.391C469.227 711.267 472.62 719.143 475.805 727.114C471.917 719.461 468.239 711.713 464.558 703.968L459.16 692.293C457.375 688.395 455.545 684.516 453.826 680.59L453.819 680.572C453.738 680.386 453.732 680.189 453.787 680.01C455.906 673.031 457.899 666.013 460.125 659.066C462.287 652.098 464.501 645.143 466.851 638.233Z" fill="#265249"/>
<path d="M533.734 718.545C533.734 718.545 538.367 721.457 537.844 724.001C537.322 726.545 521.533 737.207 520.079 735.996C518.626 734.784 523.763 725.244 523.763 725.244L533.734 718.545Z" fill="#203835"/>
<path d="M495.6 629.52C495.6 629.52 495.575 629.497 495.524 629.464C494.5 609.543 480.335 601.906 480.335 601.906L451.896 608.882C451.817 609.099 451.737 609.317 451.661 609.532C446.55 624.012 457.347 638.189 471.333 638.966C472.549 647.611 477.932 674.099 499.969 697.258L523.52 727.114L534.18 718.8C534.18 718.8 501.165 663.764 495.6 629.52Z" fill="#2E7866"/>
<path d="M478.465 602.365C482.039 606.457 485.143 610.956 487.837 615.704C490.446 620.461 492.507 625.73 493.12 631.19C494.125 636.415 495.731 641.625 497.364 646.769C499.059 651.909 500.846 657.021 502.768 662.084C506.49 672.254 510.629 682.274 515.161 692.106C517.392 697.039 519.858 701.858 522.469 706.598C525.177 711.269 527.958 715.95 531.674 719.929C523.914 712.225 518.857 702.327 513.966 692.676C509.164 682.911 505.019 672.844 501.158 662.681C499.277 657.579 497.53 652.428 495.875 647.245C494.305 642.032 492.656 636.848 491.817 631.374C491.369 625.986 489.53 620.916 487.094 616.092C484.681 611.265 481.734 606.695 478.465 602.365Z" fill="#2A6257"/>
<path d="M475.805 605.024C479.377 609.117 482.485 613.614 485.175 618.364C487.784 623.121 489.847 628.391 490.46 633.849C491.463 639.076 493.069 644.285 494.702 649.431C496.399 654.569 498.185 659.681 500.108 664.743C503.828 674.915 507.969 684.933 512.5 694.766C514.73 699.7 517.2 704.519 519.807 709.26C522.517 713.928 525.296 718.612 529.014 722.59C521.256 714.884 516.197 704.988 511.306 695.337C506.506 685.572 502.359 675.506 498.498 665.341C496.615 660.241 494.868 655.087 493.215 649.904C491.643 644.69 489.994 639.506 489.155 634.034C488.707 628.648 486.868 623.578 484.434 618.754C482.02 613.926 479.072 609.355 475.805 605.024Z" fill="#2A6257"/>
<path d="M470.206 605.624C471.081 607.042 471.957 608.396 472.876 609.695C473.816 610.974 474.763 612.237 475.883 613.297C476.978 614.385 478.201 615.294 479.552 616.011C480.931 616.692 482.445 617.027 484.111 617.269C482.525 617.742 480.73 617.793 479.056 617.258C477.392 616.712 475.914 615.711 474.672 614.519C473.449 613.303 472.483 611.885 471.731 610.383C470.983 608.88 470.412 607.288 470.206 605.624Z" fill="#2A6257"/>
<path d="M458.445 568.699C447.185 567.214 417.084 556.587 402.769 526.306L399.989 541.934C399.989 541.934 415.812 583.983 457.839 582.841C462.291 582.722 465.433 578.391 464.385 574.064C463.695 571.218 461.344 569.082 458.445 568.699Z" fill="#70C834"/>
<path d="M399.6 522.072C399.6 521.825 399.863 521.668 400.075 521.798C400.828 522.262 402.301 523.512 403.217 526.531C404.489 530.727 402.359 540.709 399.6 542.274V522.072Z" fill="#F8A660"/>
<path d="M463.839 563.913C458.995 565.019 453.123 564.855 449.215 567.361C436.136 575.749 444.821 582.237 445.717 589.578C445.759 589.922 451.896 608.882 451.896 608.882L480.335 601.906C480.335 601.906 480.571 590.971 480.617 579.404C480.662 568.121 472.324 561.978 463.839 563.913Z" fill="#7CCC38"/>
<path d="M474.967 575.617C466.114 591.354 446.785 593.002 446.785 593.002C446.785 593.002 463.219 599.017 467.948 595.579C472.676 592.138 474.967 575.617 474.967 575.617Z" fill="#70C534"/>
<path d="M464.676 565.897C456.567 575.068 442.259 579.014 442.259 579.014L464.676 565.897Z" fill="#70C534"/>
<path d="M464.676 565.897C456.179 573.433 432.687 589.972 399.709 578.385L399.667 589.578C399.667 589.578 448.305 608.123 474.967 575.617C477.789 572.176 476.577 566.963 472.62 564.921C470.019 563.579 466.866 563.957 464.676 565.897Z" fill="#7CCC38"/>
<path d="M399.667 568.369C399.667 568.369 401.927 569.373 402.785 573.672C403.645 577.972 402.565 588.288 399.667 589.578V568.369Z" fill="#F8A660"/>
</svg>
