<svg width="268" height="100" viewBox="0 0 268 100" fill="none" xmlns="http://www.w3.org/2000/svg">
<path d="M128.802 24.904L127.026 26.8V31H122.322V14.2H127.026V21.184L133.53 14.2H138.762L131.898 21.64L139.122 31H133.602L128.802 24.904ZM153.857 27.328V31H140.369V14.2H153.545V17.872H145.073V20.704H152.537V24.256H145.073V27.328H153.857ZM172.478 14.2V31H168.566L161.15 22.048V31H156.494V14.2H160.406L167.822 23.152V14.2H172.478ZM191.813 14.2V31H187.901L180.485 22.048V31H175.829V14.2H179.741L187.157 23.152V14.2H191.813ZM208.653 27.328V31H195.165V14.2H208.341V17.872H199.869V20.704H207.333V24.256H199.869V27.328H208.653ZM214.866 17.968H209.706V14.2H224.754V17.968H219.618V31H214.866V17.968ZM242.509 14.2V31H237.757V24.448H231.277V31H226.525V14.2H231.277V20.512H237.757V14.2H242.509ZM247.589 12.976C248.373 12.976 249.021 13.224 249.533 13.72C250.045 14.216 250.301 14.864 250.301 15.664C250.301 16.032 250.253 16.4 250.157 16.768C250.061 17.136 249.853 17.688 249.533 18.424L247.997 21.928H245.141L246.269 18.016C245.821 17.808 245.469 17.504 245.213 17.104C244.973 16.688 244.853 16.208 244.853 15.664C244.853 14.864 245.109 14.216 245.621 13.72C246.133 13.224 246.789 12.976 247.589 12.976ZM258.796 31.336C257.436 31.336 256.116 31.168 254.836 30.832C253.556 30.496 252.516 30.048 251.716 29.488L253.276 25.984C254.028 26.48 254.9 26.88 255.892 27.184C256.884 27.488 257.86 27.64 258.82 27.64C260.644 27.64 261.556 27.184 261.556 26.272C261.556 25.792 261.292 25.44 260.764 25.216C260.252 24.976 259.42 24.728 258.268 24.472C257.004 24.2 255.948 23.912 255.1 23.608C254.252 23.288 253.524 22.784 252.916 22.096C252.308 21.408 252.004 20.48 252.004 19.312C252.004 18.288 252.284 17.368 252.844 16.552C253.404 15.72 254.236 15.064 255.34 14.584C256.46 14.104 257.828 13.864 259.444 13.864C260.548 13.864 261.636 13.992 262.708 14.248C263.78 14.488 264.724 14.848 265.54 15.328L264.076 18.856C262.476 17.992 260.924 17.56 259.42 17.56C258.476 17.56 257.788 17.704 257.356 17.992C256.924 18.264 256.708 18.624 256.708 19.072C256.708 19.52 256.964 19.856 257.476 20.08C257.988 20.304 258.812 20.536 259.948 20.776C261.228 21.048 262.284 21.344 263.116 21.664C263.964 21.968 264.692 22.464 265.3 23.152C265.924 23.824 266.236 24.744 266.236 25.912C266.236 26.92 265.956 27.832 265.396 28.648C264.836 29.464 263.996 30.12 262.876 30.616C261.756 31.096 260.396 31.336 258.796 31.336Z" fill="#017D3F"/>
<path d="M129.234 52.6V61H127.674V57.4H123.33V61H121.77V52.6H123.33V56.068H127.674V52.6H129.234ZM139.309 58.036V61H137.749V58.06L134.449 52.6H136.117L138.577 56.692L141.061 52.6H142.597L139.309 58.036ZM153.653 56.632C154.117 56.784 154.485 57.04 154.757 57.4C155.029 57.752 155.165 58.192 155.165 58.72C155.165 59.448 154.885 60.012 154.325 60.412C153.765 60.804 152.949 61 151.877 61H147.701V52.6H151.637C152.629 52.6 153.393 52.796 153.929 53.188C154.465 53.572 154.733 54.104 154.733 54.784C154.733 55.2 154.637 55.568 154.445 55.888C154.253 56.208 153.989 56.456 153.653 56.632ZM149.261 53.824V56.14H151.469C152.013 56.14 152.429 56.044 152.717 55.852C153.013 55.652 153.161 55.364 153.161 54.988C153.161 54.604 153.013 54.316 152.717 54.124C152.429 53.924 152.013 53.824 151.469 53.824H149.261ZM151.781 59.776C152.989 59.776 153.593 59.372 153.593 58.564C153.593 57.756 152.989 57.352 151.781 57.352H149.261V59.776H151.781ZM166.526 61L164.81 58.54C164.738 58.548 164.63 58.552 164.486 58.552H162.59V61H161.03V52.6H164.486C165.214 52.6 165.846 52.72 166.382 52.96C166.926 53.2 167.342 53.544 167.63 53.992C167.918 54.44 168.062 54.972 168.062 55.588C168.062 56.22 167.906 56.764 167.594 57.22C167.29 57.676 166.85 58.016 166.274 58.24L168.206 61H166.526ZM166.49 55.588C166.49 55.052 166.314 54.64 165.962 54.352C165.61 54.064 165.094 53.92 164.414 53.92H162.59V57.268H164.414C165.094 57.268 165.61 57.124 165.962 56.836C166.314 56.54 166.49 56.124 166.49 55.588ZM174.007 52.6H175.567V61H174.007V52.6ZM182.039 52.6H185.711C186.607 52.6 187.403 52.776 188.099 53.128C188.795 53.472 189.335 53.964 189.719 54.604C190.103 55.236 190.295 55.968 190.295 56.8C190.295 57.632 190.103 58.368 189.719 59.008C189.335 59.64 188.795 60.132 188.099 60.484C187.403 60.828 186.607 61 185.711 61H182.039V52.6ZM185.639 59.68C186.255 59.68 186.795 59.564 187.259 59.332C187.731 59.092 188.091 58.756 188.339 58.324C188.595 57.884 188.723 57.376 188.723 56.8C188.723 56.224 188.595 55.72 188.339 55.288C188.091 54.848 187.731 54.512 187.259 54.28C186.795 54.04 186.255 53.92 185.639 53.92H183.599V59.68H185.639Z" fill="#017D3F"/>
<path d="M123.33 80.908V83.464H127.386V84.784H123.33V88H121.77V79.6H127.902V80.908H123.33ZM137.441 88.12C136.585 88.12 135.813 87.936 135.125 87.568C134.437 87.192 133.897 86.676 133.505 86.02C133.113 85.356 132.917 84.616 132.917 83.8C132.917 82.984 133.113 82.248 133.505 81.592C133.897 80.928 134.437 80.412 135.125 80.044C135.813 79.668 136.585 79.48 137.441 79.48C138.297 79.48 139.069 79.668 139.757 80.044C140.445 80.412 140.985 80.924 141.377 81.58C141.769 82.236 141.965 82.976 141.965 83.8C141.965 84.624 141.769 85.364 141.377 86.02C140.985 86.676 140.445 87.192 139.757 87.568C139.069 87.936 138.297 88.12 137.441 88.12ZM137.441 86.752C138.001 86.752 138.505 86.628 138.953 86.38C139.401 86.124 139.753 85.772 140.009 85.324C140.265 84.868 140.393 84.36 140.393 83.8C140.393 83.24 140.265 82.736 140.009 82.288C139.753 81.832 139.401 81.48 138.953 81.232C138.505 80.976 138.001 80.848 137.441 80.848C136.881 80.848 136.377 80.976 135.929 81.232C135.481 81.48 135.129 81.832 134.873 82.288C134.617 82.736 134.489 83.24 134.489 83.8C134.489 84.36 134.617 84.868 134.873 85.324C135.129 85.772 135.481 86.124 135.929 86.38C136.377 86.628 136.881 86.752 137.441 86.752ZM151.43 88.12C150.27 88.12 149.366 87.796 148.718 87.148C148.07 86.492 147.746 85.556 147.746 84.34V79.6H149.306V84.28C149.306 85.928 150.018 86.752 151.442 86.752C152.858 86.752 153.566 85.928 153.566 84.28V79.6H155.102V84.34C155.102 85.556 154.778 86.492 154.13 87.148C153.49 87.796 152.59 88.12 151.43 88.12ZM168.951 79.6V88H167.667L163.035 82.312V88H161.487V79.6H162.771L167.403 85.288V79.6H168.951ZM175.402 79.6H179.074C179.97 79.6 180.766 79.776 181.462 80.128C182.158 80.472 182.698 80.964 183.082 81.604C183.466 82.236 183.658 82.968 183.658 83.8C183.658 84.632 183.466 85.368 183.082 86.008C182.698 86.64 182.158 87.132 181.462 87.484C180.766 87.828 179.97 88 179.074 88H175.402V79.6ZM179.002 86.68C179.618 86.68 180.158 86.564 180.622 86.332C181.094 86.092 181.454 85.756 181.702 85.324C181.958 84.884 182.086 84.376 182.086 83.8C182.086 83.224 181.958 82.72 181.702 82.288C181.454 81.848 181.094 81.512 180.622 81.28C180.158 81.04 179.618 80.92 179.002 80.92H176.962V86.68H179.002ZM194.847 86.056H190.647L189.819 88H188.211L191.991 79.6H193.527L197.319 88H195.687L194.847 86.056ZM194.331 84.832L192.747 81.16L191.175 84.832H194.331ZM203.869 80.92H201.085V79.6H208.213V80.92H205.429V88H203.869V80.92ZM213.584 79.6H215.144V88H213.584V79.6ZM225.54 88.12C224.684 88.12 223.912 87.936 223.224 87.568C222.536 87.192 221.996 86.676 221.604 86.02C221.212 85.356 221.016 84.616 221.016 83.8C221.016 82.984 221.212 82.248 221.604 81.592C221.996 80.928 222.536 80.412 223.224 80.044C223.912 79.668 224.684 79.48 225.54 79.48C226.396 79.48 227.168 79.668 227.856 80.044C228.544 80.412 229.084 80.924 229.476 81.58C229.868 82.236 230.064 82.976 230.064 83.8C230.064 84.624 229.868 85.364 229.476 86.02C229.084 86.676 228.544 87.192 227.856 87.568C227.168 87.936 226.396 88.12 225.54 88.12ZM225.54 86.752C226.1 86.752 226.604 86.628 227.052 86.38C227.5 86.124 227.852 85.772 228.108 85.324C228.364 84.868 228.492 84.36 228.492 83.8C228.492 83.24 228.364 82.736 228.108 82.288C227.852 81.832 227.5 81.48 227.052 81.232C226.604 80.976 226.1 80.848 225.54 80.848C224.98 80.848 224.476 80.976 224.028 81.232C223.58 81.48 223.228 81.832 222.972 82.288C222.716 82.736 222.588 83.24 222.588 83.8C222.588 84.36 222.716 84.868 222.972 85.324C223.228 85.772 223.58 86.124 224.028 86.38C224.476 86.628 224.98 86.752 225.54 86.752ZM243.381 79.6V88H242.097L237.465 82.312V88H235.917V79.6H237.201L241.833 85.288V79.6H243.381Z" fill="#017D3F"/>
<path d="M22.1542 23.3333C32.1542 23.3333 22.1542 6.66666 22.1542 6.66666C22.1542 6.66666 12.1542 23.3333 22.1542 23.3333Z" fill="#F0E021"/>
<path d="M22.1542 36.6667C22.1542 27.4617 14.6925 20 5.48749 20C5.48749 29.205 12.9492 36.6667 22.1542 36.6667Z" fill="#F0E021"/>
<path d="M38.8208 20C29.6158 20 22.1542 27.4617 22.1542 36.6667C31.3592 36.6667 38.8208 29.205 38.8208 20Z" fill="#F0E021"/>
<path d="M5.48749 33.3333C5.48749 42.5383 12.9492 50 22.1542 50C22.1542 40.795 14.6925 33.3333 5.48749 33.3333Z" fill="#F0E021"/>
<path d="M22.1542 50C31.3592 50 38.8208 42.5383 38.8208 33.3333C29.6158 33.3333 22.1542 40.795 22.1542 50Z" fill="#F0E021"/>
<path d="M5.48749 46.6667C5.48749 55.8717 12.9492 63.3333 22.1542 63.3333C22.1542 54.1283 14.6925 46.6667 5.48749 46.6667Z" fill="#F0E021"/>
<path d="M22.1542 63.3333C31.3592 63.3333 38.8208 55.8717 38.8208 46.6667C29.6158 46.6667 22.1542 54.1283 22.1542 63.3333Z" fill="#F0E021"/>
<path d="M5.48749 60C5.48749 69.205 12.9492 76.6667 22.1542 76.6667C22.1542 67.4617 14.6925 60 5.48749 60Z" fill="#F0E021"/>
<path d="M38.8208 60C29.6158 60 22.1542 67.4617 22.1542 76.6667C31.3592 76.6667 38.8208 69.205 38.8208 60Z" fill="#F0E021"/>
<path d="M75.4875 23.3333C85.4875 23.3333 75.4875 6.66666 75.4875 6.66666C75.4875 6.66666 65.4875 23.3333 75.4875 23.3333Z" fill="#F0E021"/>
<path d="M58.8208 20C58.8208 29.205 66.2825 36.6667 75.4875 36.6667C75.4875 27.4617 68.0258 20 58.8208 20Z" fill="#F0E021"/>
<path d="M75.4875 36.6667C84.6925 36.6667 92.1542 29.205 92.1542 20C82.9492 20 75.4875 27.4617 75.4875 36.6667Z" fill="#F0E021"/>
<path d="M58.8208 33.3333C58.8208 42.5383 66.2825 50 75.4875 50C75.4875 40.795 68.0258 33.3333 58.8208 33.3333Z" fill="#F0E021"/>
<path d="M75.4875 50C84.6925 50 92.1542 42.5383 92.1542 33.3333C82.9492 33.3333 75.4875 40.795 75.4875 50Z" fill="#F0E021"/>
<path d="M58.8208 46.6667C58.8208 55.8717 66.2825 63.3333 75.4875 63.3333C75.4875 54.1283 68.0258 46.6667 58.8208 46.6667Z" fill="#F0E021"/>
<path d="M75.4875 63.3333C84.6925 63.3333 92.1542 55.8717 92.1542 46.6667C82.9492 46.6667 75.4875 54.1283 75.4875 63.3333Z" fill="#F0E021"/>
<path d="M58.8208 60C58.8208 69.205 66.2825 76.6667 75.4875 76.6667C75.4875 67.4617 68.0258 60 58.8208 60Z" fill="#F0E021"/>
<path d="M75.4875 76.6667C84.6925 76.6667 92.1542 69.205 92.1542 60C82.9492 60 75.4875 67.4617 75.4875 76.6667Z" fill="#F0E021"/>
<path d="M20.4875 76.6667H23.8208V100H20.4875V76.6667Z" fill="#F0E021"/>
<path d="M22.1542 6.66667C21.2342 6.66667 20.4875 5.92 20.4875 5V1.66667C20.4875 0.746667 21.2342 0 22.1542 0C23.0742 0 23.8208 0.746667 23.8208 1.66667V5C23.8208 5.92 23.0742 6.66667 22.1542 6.66667Z" fill="#F0E021"/>
<path d="M38.8208 20C38.1708 19.35 38.1708 18.2933 38.8208 17.6433L41.4641 15C42.1141 14.35 43.1708 14.35 43.8208 15C44.4708 15.65 44.4708 16.7067 43.8208 17.3567L41.1775 20C40.5275 20.65 39.4708 20.65 38.8208 20Z" fill="#F0E021"/>
<path d="M3.13083 20L0.4875 17.3567C-0.1625 16.7067 -0.1625 15.65 0.4875 15C1.1375 14.35 2.19417 14.35 2.84417 15L5.4875 17.6433C6.1375 18.2933 6.1375 19.35 5.4875 20C4.8375 20.65 3.78083 20.65 3.13083 20Z" fill="#F0E021"/>
<path d="M38.8208 33.3333C38.1708 32.6833 38.1708 31.6267 38.8208 30.9767L41.4641 28.3333C42.1141 27.6833 43.1708 27.6833 43.8208 28.3333C44.4708 28.9833 44.4708 30.04 43.8208 30.69L41.1775 33.3333C40.5275 33.9833 39.4708 33.9833 38.8208 33.3333Z" fill="#F0E021"/>
<path d="M3.13083 33.3333L0.4875 30.69C-0.1625 30.04 -0.1625 28.9833 0.4875 28.3333C1.1375 27.6833 2.19417 27.6833 2.84417 28.3333L5.4875 30.9767C6.1375 31.6267 6.1375 32.6833 5.4875 33.3333C4.8375 33.9833 3.78083 33.9833 3.13083 33.3333Z" fill="#F0E021"/>
<path d="M38.8208 46.6667C38.1708 46.0167 38.1708 44.96 38.8208 44.31L41.4641 41.6667C42.1141 41.0167 43.1708 41.0167 43.8208 41.6667C44.4708 42.3167 44.4708 43.3733 43.8208 44.0233L41.1775 46.6667C40.5275 47.3167 39.4708 47.3167 38.8208 46.6667Z" fill="#F0E021"/>
<path d="M3.13083 46.6667L0.4875 44.0233C-0.1625 43.3733 -0.1625 42.3167 0.4875 41.6667C1.1375 41.0167 2.19417 41.0167 2.84417 41.6667L5.4875 44.31C6.1375 44.96 6.1375 46.0167 5.4875 46.6667C4.8375 47.3167 3.78083 47.3167 3.13083 46.6667Z" fill="#F0E021"/>
<path d="M38.8208 60C38.1708 59.35 38.1708 58.2933 38.8208 57.6433L41.4641 55C42.1141 54.35 43.1708 54.35 43.8208 55C44.4708 55.65 44.4708 56.7067 43.8208 57.3567L41.1775 60C40.5275 60.65 39.4708 60.65 38.8208 60Z" fill="#F0E021"/>
<path d="M3.13083 60L0.4875 57.3567C-0.1625 56.7067 -0.1625 55.65 0.4875 55C1.1375 54.35 2.19417 54.35 2.84417 55L5.4875 57.6433C6.1375 58.2933 6.1375 59.35 5.4875 60C4.8375 60.65 3.78083 60.65 3.13083 60Z" fill="#F0E021"/>
<path d="M73.8208 76.6667H77.1541V100H73.8208V76.6667Z" fill="#F0E021"/>
<path d="M75.4875 6.66667C74.5675 6.66667 73.8208 5.92 73.8208 5V1.66667C73.8208 0.746667 74.5675 0 75.4875 0C76.4075 0 77.1541 0.746667 77.1541 1.66667V5C77.1541 5.92 76.4075 6.66667 75.4875 6.66667Z" fill="#F0E021"/>
<path d="M92.1542 20C91.5042 19.35 91.5042 18.2933 92.1542 17.6433L94.7975 15C95.4475 14.35 96.5042 14.35 97.1542 15C97.8042 15.65 97.8042 16.7067 97.1542 17.3567L94.5108 20C93.8608 20.65 92.8042 20.65 92.1542 20Z" fill="#F0E021"/>
<path d="M56.4641 20L53.8208 17.3567C53.1708 16.7067 53.1708 15.65 53.8208 15C54.4708 14.35 55.5275 14.35 56.1775 15L58.8208 17.6433C59.4708 18.2933 59.4708 19.35 58.8208 20C58.1708 20.65 57.1141 20.65 56.4641 20Z" fill="#F0E021"/>
<path d="M92.1542 33.3333C91.5042 32.6833 91.5042 31.6267 92.1542 30.9767L94.7975 28.3333C95.4475 27.6833 96.5042 27.6833 97.1542 28.3333C97.8042 28.9833 97.8042 30.04 97.1542 30.69L94.5108 33.3333C93.8608 33.9833 92.8042 33.9833 92.1542 33.3333Z" fill="#F0E021"/>
<path d="M56.4641 33.3333L53.8208 30.69C53.1708 30.04 53.1708 28.9833 53.8208 28.3333C54.4708 27.6833 55.5275 27.6833 56.1775 28.3333L58.8208 30.9767C59.4708 31.6267 59.4708 32.6833 58.8208 33.3333C58.1708 33.9833 57.1141 33.9833 56.4641 33.3333Z" fill="#F0E021"/>
<path d="M92.1542 46.6667C91.5042 46.0167 91.5042 44.96 92.1542 44.31L94.7975 41.6667C95.4475 41.0167 96.5042 41.0167 97.1542 41.6667C97.8042 42.3167 97.8042 43.3733 97.1542 44.0233L94.5108 46.6667C93.8608 47.3167 92.8042 47.3167 92.1542 46.6667Z" fill="#F0E021"/>
<path d="M56.4641 46.6667L53.8208 44.0233C53.1708 43.3733 53.1708 42.3167 53.8208 41.6667C54.4708 41.0167 55.5275 41.0167 56.1775 41.6667L58.8208 44.31C59.4708 44.96 59.4708 46.0167 58.8208 46.6667C58.1708 47.3167 57.1141 47.3167 56.4641 46.6667Z" fill="#F0E021"/>
<path d="M92.1542 60C91.5042 59.35 91.5042 58.2933 92.1542 57.6433L94.7975 55C95.4475 54.35 96.5042 54.35 97.1542 55C97.8042 55.65 97.8042 56.7067 97.1542 57.3567L94.5108 60C93.8608 60.65 92.8042 60.65 92.1542 60Z" fill="#F0E021"/>
<path d="M56.4641 60L53.8208 57.3567C53.1708 56.7067 53.1708 55.65 53.8208 55C54.4708 54.35 55.5275 54.35 56.1775 55L58.8208 57.6433C59.4708 58.2933 59.4708 59.35 58.8208 60C58.1708 60.65 57.1141 60.65 56.4641 60Z" fill="#F0E021"/>
</svg>
